<?xml version="1.0" ?>
<svg xmlns="http://www.w3.org/2000/svg" version="1.1" width="256" height="256">
  <defs/>
  <g>
    <path d="M 126.0999984741211 210.1199951171875 C 136.50999450683594 169.49000549316406 124.6500015258789 229.61000061035156 131.7100067138672 130.57000732421875" stroke-width="3.0" fill="none" stroke="rgb(1, 1, 1)" stroke-opacity="1.0" stroke-linecap="round" stroke-linejoin="round"/>
    <path d="M 160.64999389648438 127.44000244140625 C 119.80999755859375 94.94999694824219 129.7100067138672 111.86000061035156 158.30999755859375 128.08999633789062" stroke-width="3.0" fill="none" stroke="rgb(1, 1, 1)" stroke-opacity="1.0" stroke-linecap="round" stroke-linejoin="round"/>
    <path d="M 126.91999816894531 179.49000549316406 C 118.7300033569336 114.22000122070312 128.4600067138672 138.5800018310547 114.62000274658203 126.02999877929688" stroke-width="3.0" fill="none" stroke="rgb(1, 1, 1)" stroke-opacity="1.0" stroke-linecap="round" stroke-linejoin="round"/>
    <path d="M 139.52000427246094 94.05999755859375 C 148.11000061035156 85.05000305175781 126.48999786376953 71.08999633789062 104.31999969482422 92.68000030517578" stroke-width="3.0" fill="none" stroke="rgb(1, 1, 1)" stroke-opacity="1.0" stroke-linecap="round" stroke-linejoin="round"/>
    <path d="M 138.50999450683594 69.38999938964844 C 117.4000015258789 89.04000091552734 123.41000366210938 50.279998779296875 138.4499969482422 67.63999938964844" stroke-width="3.0" fill="none" stroke="rgb(1, 1, 1)" stroke-opacity="1.0" stroke-linecap="round" stroke-linejoin="round"/>
    <path d="M 84.7699966430664 124.4800033569336 C 130.16000366210938 131.4199981689453 117.33999633789062 126.47000122070312 122.16000366210938 142.89999389648438" stroke-width="3.0" fill="none" stroke="rgb(1, 1, 1)" stroke-opacity="1.0" stroke-linecap="round" stroke-linejoin="round"/>
    <path d="M 136.0500030517578 63.86000061035156 C 129.97999572753906 118.9000015258789 126.98999786376953 16.73999786376953 135.8000030517578 88.86000061035156" stroke-width="3.0" fill="none" stroke="rgb(1, 1, 1)" stroke-opacity="1.0" stroke-linecap="round" stroke-linejoin="round"/>
    <path d="M 161.89999389648438 65.16999816894531 C 144.58999633789062 28.0 150.72999572753906 60.709999084472656 154.6999969482422 50.61000061035156" stroke-width="3.0" fill="none" stroke="rgb(1, 1, 1)" stroke-opacity="1.0" stroke-linecap="round" stroke-linejoin="round"/>
    <path d="M 127.7699966430664 79.33999633789062 C 138.9199981689453 100.44999694824219 163.58999633789062 70.86000061035156 161.4499969482422 65.31999969482422" stroke-width="3.0" fill="none" stroke="rgb(1, 1, 1)" stroke-opacity="1.0" stroke-linecap="round" stroke-linejoin="round"/>
    <path d="M 153.86000061035156 129.0 C 118.9000015258789 109.01000213623047 157.77999877929688 114.7300033569336 163.3300018310547 126.26000213623047" stroke-width="3.0" fill="none" stroke="rgb(1, 1, 1)" stroke-opacity="1.0" stroke-linecap="round" stroke-linejoin="round"/>
    <path d="M 127.80999755859375 82.80000305175781 C 126.62999725341797 115.58999633789062 130.97999572753906 116.12000274658203 123.47000122070312 89.79000091552734" stroke-width="3.0" fill="none" stroke="rgb(1, 1, 1)" stroke-opacity="1.0" stroke-linecap="round" stroke-linejoin="round"/>
    <path d="M 100.30999755859375 93.0199966430664 C 124.69000244140625 108.27999877929688 101.5199966430664 106.58000183105469 102.75 91.33000183105469" stroke-width="3.0" fill="none" stroke="rgb(1, 1, 1)" stroke-opacity="1.0" stroke-linecap="round" stroke-linejoin="round"/>
    <path d="M 84.7300033569336 122.2300033569336 C 117.83999633789062 112.20999908447266 114.08000183105469 115.02999877929688 123.93000030517578 108.93000030517578" stroke-width="3.0" fill="none" stroke="rgb(1, 1, 1)" stroke-opacity="1.0" stroke-linecap="round" stroke-linejoin="round"/>
  </g>
</svg>
