<?xml version="1.0" ?>
<svg height="256" version="1.1" width="256" xmlns="http://www.w3.org/2000/svg">
  <defs/>
  <g>
    <path d="M 136.09130859375 137.290283203125 C 158.33187866210938 140.983154296875 130.27159118652344 140.02725219726562 145.43695068359375 126.80841827392578" fill="none" stroke="rgb(0, 0, 0)" stroke-linecap="round" stroke-linejoin="round" stroke-opacity="1.0" stroke-width="3.0"/>
    <path d="M 158.11312866210938 105.22069549560547 C 109.65086364746094 61.67204666137695 197.10670471191406 125.80902099609375 150.46084594726562 107.78345489501953" fill="none" stroke="rgb(0, 0, 0)" stroke-linecap="round" stroke-linejoin="round" stroke-opacity="1.0" stroke-width="3.0"/>
    <path d="M 150.73001098632812 160.38992309570312 C 146.62278747558594 187.53163146972656 101.15776062011719 117.88671112060547 174.81509399414062 118.57959747314453" fill="none" stroke="rgb(0, 0, 0)" stroke-linecap="round" stroke-linejoin="round" stroke-opacity="1.0" stroke-width="3.0"/>
    <path d="M 176.84201049804688 112.27399444580078 C 126.78709411621094 127.53824615478516 172.84555053710938 149.0434112548828 142.263671875 129.32974243164062" fill="none" stroke="rgb(0, 0, 0)" stroke-linecap="round" stroke-linejoin="round" stroke-opacity="1.0" stroke-width="3.0"/>
    <path d="M 142.55499267578125 148.123046875 C 170.4028778076172 129.67437744140625 146.164794921875 196.85797119140625 151.7649383544922 137.1418914794922" fill="none" stroke="rgb(0, 0, 0)" stroke-linecap="round" stroke-linejoin="round" stroke-opacity="1.0" stroke-width="3.0"/>
    <path d="M 174.1077117919922 133.5353240966797 C 154.08567810058594 104.25090789794922 119.94479370117188 72.71086120605469 137.1748504638672 84.03390502929688" fill="none" stroke="rgb(0, 0, 0)" stroke-linecap="round" stroke-linejoin="round" stroke-opacity="1.0" stroke-width="3.0"/>
    <path d="M 144.7490234375 101.61335754394531 C 123.82772827148438 62.68943786621094 124.73518371582031 106.04925537109375 138.5778045654297 82.08261108398438" fill="none" stroke="rgb(0, 0, 0)" stroke-linecap="round" stroke-linejoin="round" stroke-opacity="1.0" stroke-width="3.0"/>
    <path d="M 173.95794677734375 116.78791809082031 C 157.96604919433594 127.53382873535156 110.74267578125 146.10623168945312 174.23936462402344 109.43650817871094" fill="none" stroke="rgb(0, 0, 0)" stroke-linecap="round" stroke-linejoin="round" stroke-opacity="1.0" stroke-width="3.0"/>
    <path d="M 161.10488891601562 101.74176025390625 C 121.0389404296875 102.13526153564453 128.05029296875 103.20514678955078 159.9444580078125 107.91934967041016" fill="none" stroke="rgb(0, 0, 0)" stroke-linecap="round" stroke-linejoin="round" stroke-opacity="1.0" stroke-width="3.0"/>
    <path d="M 179.61105346679688 168.48013305664062 C 216.95021057128906 175.41107177734375 174.35653686523438 91.91788482666016 168.60891723632812 153.33834838867188" fill="none" stroke="rgb(0, 0, 0)" stroke-linecap="round" stroke-linejoin="round" stroke-opacity="1.0" stroke-width="3.0"/>
    <path d="M 152.64234924316406 114.8891372680664 C 142.914306640625 105.50958251953125 126.77366638183594 75.96260070800781 135.50436401367188 111.01905822753906" fill="none" stroke="rgb(0, 0, 0)" stroke-linecap="round" stroke-linejoin="round" stroke-opacity="1.0" stroke-width="3.0"/>
    <path d="M 129.7246856689453 132.24771118164062 C 129.47276306152344 112.50946044921875 127.22135925292969 137.49110412597656 183.39682006835938 152.24449157714844" fill="none" stroke="rgb(0, 0, 0)" stroke-linecap="round" stroke-linejoin="round" stroke-opacity="1.0" stroke-width="3.0"/>
    <path d="M 158.94810485839844 122.79397583007812 C 198.355712890625 84.66033935546875 141.54730224609375 132.88299560546875 178.23158264160156 167.91464233398438" fill="none" stroke="rgb(0, 0, 0)" stroke-linecap="round" stroke-linejoin="round" stroke-opacity="1.0" stroke-width="3.0"/>
    <path d="M 132.71080017089844 120.23746490478516 C 150.8280487060547 67.71165466308594 124.11051940917969 112.0062026977539 138.3077850341797 98.0015640258789" fill="none" stroke="rgb(0, 0, 0)" stroke-linecap="round" stroke-linejoin="round" stroke-opacity="1.0" stroke-width="3.0"/>
    <path d="M 152.54969787597656 107.41075897216797 C 112.03814697265625 166.93812561035156 201.84640502929688 138.29006958007812 164.77597045898438 156.57241821289062" fill="none" stroke="rgb(0, 0, 0)" stroke-linecap="round" stroke-linejoin="round" stroke-opacity="1.0" stroke-width="3.0"/>
    <path d="M 138.82235717773438 95.1207275390625 C 156.81982421875 93.66190338134766 163.70578002929688 143.09487915039062 138.60308837890625 92.67786407470703" fill="none" stroke="rgb(0, 0, 0)" stroke-linecap="round" stroke-linejoin="round" stroke-opacity="1.0" stroke-width="3.0"/>
  </g>
</svg>
