<?xml version="1.0" ?>
<svg height="256" version="1.1" width="256" xmlns="http://www.w3.org/2000/svg">
  <defs/>
  <g>
    <path d="M 135.26849365234375 162.13584899902344 C 127.96188354492188 81.59413146972656 166.96937561035156 89.89278411865234 188.10337829589844 92.03780364990234" fill="none" stroke="rgb(0, 0, 0)" stroke-linecap="round" stroke-linejoin="round" stroke-opacity="1.0" stroke-width="3.0"/>
    <path d="M 155.54739379882812 180.30209350585938 C 116.35531616210938 155.5343780517578 126.63742065429688 173.86968994140625 145.44847106933594 178.43975830078125" fill="none" stroke="rgb(0, 0, 0)" stroke-linecap="round" stroke-linejoin="round" stroke-opacity="1.0" stroke-width="3.0"/>
    <path d="M 233.15228271484375 114.2204360961914 C 180.94886779785156 98.883544921875 163.00686645507812 75.67695617675781 236.98495483398438 104.67752838134766" fill="none" stroke="rgb(0, 0, 0)" stroke-linecap="round" stroke-linejoin="round" stroke-opacity="1.0" stroke-width="3.0"/>
    <path d="M 79.62287902832031 89.0675048828125 C 114.63886260986328 95.8893051147461 161.37339782714844 112.8053207397461 87.76844024658203 134.5674591064453" fill="none" stroke="rgb(0, 0, 0)" stroke-linecap="round" stroke-linejoin="round" stroke-opacity="1.0" stroke-width="3.0"/>
    <path d="M 135.0513916015625 111.47884368896484 C -2.5304718017578125 -41.029266357421875 116.83775329589844 27.627487182617188 155.52146911621094 162.15631103515625" fill="none" stroke="rgb(0, 0, 0)" stroke-linecap="round" stroke-linejoin="round" stroke-opacity="1.0" stroke-width="3.0"/>
    <path d="M 154.08746337890625 131.7948760986328 C 134.96861267089844 83.05474090576172 112.89271545410156 128.81982421875 138.3835906982422 114.53649139404297" fill="none" stroke="rgb(0, 0, 0)" stroke-linecap="round" stroke-linejoin="round" stroke-opacity="1.0" stroke-width="3.0"/>
    <path d="M 97.366943359375 35.225318908691406 C 143.96798706054688 85.53016662597656 141.46165466308594 170.07005310058594 145.0101776123047 90.82756042480469" fill="none" stroke="rgb(0, 0, 0)" stroke-linecap="round" stroke-linejoin="round" stroke-opacity="1.0" stroke-width="3.0"/>
    <path d="M 260.80657958984375 105.85565185546875 C 266.58380126953125 145.49977111816406 264.38262939453125 68.21610260009766 263.63299560546875 112.88973999023438" fill="none" stroke="rgb(0, 0, 0)" stroke-linecap="round" stroke-linejoin="round" stroke-opacity="1.0" stroke-width="3.0"/>
    <path d="M 238.52227783203125 107.72577667236328 C 182.41696166992188 179.05633544921875 198.95570373535156 124.5855712890625 160.81629943847656 177.02801513671875" fill="none" stroke="rgb(0, 0, 0)" stroke-linecap="round" stroke-linejoin="round" stroke-opacity="1.0" stroke-width="3.0"/>
    <path d="M 171.35791015625 57.40550231933594 C 114.60186767578125 95.32827758789062 163.95846557617188 73.43582153320312 123.79776000976562 124.33143615722656" fill="none" stroke="rgb(0, 0, 0)" stroke-linecap="round" stroke-linejoin="round" stroke-opacity="1.0" stroke-width="3.0"/>
    <path d="M 70.55044555664062 107.50948333740234 C 69.88123321533203 175.23287963867188 151.29002380371094 50.99761199951172 115.74300384521484 144.74200439453125" fill="none" stroke="rgb(0, 0, 0)" stroke-linecap="round" stroke-linejoin="round" stroke-opacity="1.0" stroke-width="3.0"/>
    <path d="M 142.14019775390625 96.18785858154297 C 115.87815856933594 100.66464233398438 155.60836791992188 87.894287109375 133.11575317382812 91.1351089477539" fill="none" stroke="rgb(0, 0, 0)" stroke-linecap="round" stroke-linejoin="round" stroke-opacity="1.0" stroke-width="3.0"/>
    <path d="M 68.39933013916016 111.74784088134766 C 75.44209289550781 96.26696014404297 58.904685974121094 105.65438079833984 78.28450012207031 80.80094146728516" fill="none" stroke="rgb(0, 0, 0)" stroke-linecap="round" stroke-linejoin="round" stroke-opacity="1.0" stroke-width="3.0"/>
    <path d="M 119.0604248046875 148.24783325195312 C 135.9479217529297 206.07122802734375 198.84286499023438 145.07470703125 153.78623962402344 178.184326171875" fill="none" stroke="rgb(0, 0, 0)" stroke-linecap="round" stroke-linejoin="round" stroke-opacity="1.0" stroke-width="3.0"/>
    <path d="M 75.29203796386719 54.43489456176758 C 55.53227996826172 -23.656478881835938 104.36552429199219 14.384689331054688 137.69700622558594 103.01651763916016" fill="none" stroke="rgb(0, 0, 0)" stroke-linecap="round" stroke-linejoin="round" stroke-opacity="1.0" stroke-width="3.0"/>
    <path d="M 84.20204162597656 15.653266906738281 C 54.90502166748047 90.38419342041016 84.82881164550781 63.95615005493164 74.3924789428711 81.95845031738281" fill="none" stroke="rgb(0, 0, 0)" stroke-linecap="round" stroke-linejoin="round" stroke-opacity="1.0" stroke-width="3.0"/>
  </g>
</svg>
