<?xml version="1.0" ?>
<svg height="256" version="1.1" width="256" xmlns="http://www.w3.org/2000/svg">
  <defs/>
  <g>
    <path d="M 109.82051086425781 124.48062133789062 C 95.16004943847656 162.1136474609375 73.91358947753906 170.75506591796875 103.63544464111328 126.08441162109375" fill="none" stroke="rgb(0, 0, 0)" stroke-linecap="round" stroke-linejoin="round" stroke-opacity="1.0" stroke-width="3.0"/>
    <path d="M 154.65353393554688 120.27140808105469 C 162.81689453125 107.32555389404297 175.8115997314453 92.75881958007812 144.77943420410156 104.69444274902344" fill="none" stroke="rgb(0, 0, 0)" stroke-linecap="round" stroke-linejoin="round" stroke-opacity="1.0" stroke-width="3.0"/>
    <path d="M 139.46888732910156 179.62762451171875 C 160.006591796875 178.11314392089844 132.68560791015625 178.79359436035156 150.34170532226562 139.982177734375" fill="none" stroke="rgb(0, 0, 0)" stroke-linecap="round" stroke-linejoin="round" stroke-opacity="1.0" stroke-width="3.0"/>
    <path d="M 147.32460021972656 108.66567993164062 C 172.72084045410156 49.15471649169922 156.467041015625 191.30535888671875 125.20640563964844 141.29519653320312" fill="none" stroke="rgb(0, 0, 0)" stroke-linecap="round" stroke-linejoin="round" stroke-opacity="1.0" stroke-width="3.0"/>
    <path d="M 118.33639526367188 144.76907348632812 C 100.60161590576172 161.49537658691406 97.71530151367188 150.4135284423828 102.59712219238281 161.39544677734375" fill="none" stroke="rgb(0, 0, 0)" stroke-linecap="round" stroke-linejoin="round" stroke-opacity="1.0" stroke-width="3.0"/>
    <path d="M 111.84037780761719 150.96792602539062 C 136.52479553222656 104.31428527832031 90.88693237304688 122.11272430419922 87.56901550292969 152.60321044921875" fill="none" stroke="rgb(0, 0, 0)" stroke-linecap="round" stroke-linejoin="round" stroke-opacity="1.0" stroke-width="3.0"/>
    <path d="M 90.112548828125 123.22056579589844 C 67.96609497070312 80.44049072265625 83.13806915283203 73.21599578857422 87.73099517822266 73.28143310546875" fill="none" stroke="rgb(0, 0, 0)" stroke-linecap="round" stroke-linejoin="round" stroke-opacity="1.0" stroke-width="3.0"/>
    <path d="M 117.15229797363281 131.69863891601562 C 140.048095703125 100.91251373291016 146.24520874023438 134.08331298828125 143.1862335205078 95.4332046508789" fill="none" stroke="rgb(0, 0, 0)" stroke-linecap="round" stroke-linejoin="round" stroke-opacity="1.0" stroke-width="3.0"/>
    <path d="M 89.1827163696289 121.19591522216797 C 103.89279174804688 205.13858032226562 56.4889030456543 132.73643493652344 104.94331359863281 122.08214569091797" fill="none" stroke="rgb(0, 0, 0)" stroke-linecap="round" stroke-linejoin="round" stroke-opacity="1.0" stroke-width="3.0"/>
    <path d="M 136.9991455078125 176.6527862548828 C 124.00031280517578 108.59266662597656 88.69403839111328 171.00462341308594 107.11810302734375 177.72622680664062" fill="none" stroke="rgb(0, 0, 0)" stroke-linecap="round" stroke-linejoin="round" stroke-opacity="1.0" stroke-width="3.0"/>
    <path d="M 91.49089813232422 124.85918426513672 C 86.74314880371094 122.96963500976562 77.09530639648438 101.19139862060547 79.78562927246094 81.51612854003906" fill="none" stroke="rgb(0, 0, 0)" stroke-linecap="round" stroke-linejoin="round" stroke-opacity="1.0" stroke-width="3.0"/>
    <path d="M 88.20243072509766 178.07106018066406 C 74.89167785644531 179.65269470214844 83.13291931152344 179.81077575683594 88.64289855957031 121.8962173461914" fill="none" stroke="rgb(0, 0, 0)" stroke-linecap="round" stroke-linejoin="round" stroke-opacity="1.0" stroke-width="3.0"/>
    <path d="M 111.36415100097656 122.83745574951172 C 176.9747314453125 121.8578109741211 104.36636352539062 109.70716857910156 108.18840026855469 136.4886932373047" fill="none" stroke="rgb(0, 0, 0)" stroke-linecap="round" stroke-linejoin="round" stroke-opacity="1.0" stroke-width="3.0"/>
    <path d="M 81.08917999267578 100.33985900878906 C 75.28129577636719 90.73253631591797 81.5623779296875 111.86581420898438 92.19388580322266 129.2582550048828" fill="none" stroke="rgb(0, 0, 0)" stroke-linecap="round" stroke-linejoin="round" stroke-opacity="1.0" stroke-width="3.0"/>
    <path d="M 127.64940643310547 147.20240783691406 C 105.28075408935547 146.62107849121094 76.95443725585938 160.05555725097656 88.04666900634766 176.47576904296875" fill="none" stroke="rgb(0, 0, 0)" stroke-linecap="round" stroke-linejoin="round" stroke-opacity="1.0" stroke-width="3.0"/>
    <path d="M 158.03375244140625 108.22474670410156 C 122.91938018798828 75.2158203125 159.80335998535156 112.2537841796875 159.359130859375 89.26815795898438" fill="none" stroke="rgb(0, 0, 0)" stroke-linecap="round" stroke-linejoin="round" stroke-opacity="1.0" stroke-width="3.0"/>
  </g>
</svg>
