<?xml version="1.0" ?>
<svg height="256" version="1.1" width="256" xmlns="http://www.w3.org/2000/svg">
  <defs/>
  <g>
    <path d="M 129.2816162109375 183.66452026367188 C 163.92657470703125 133.6659698486328 151.04885864257812 117.96556854248047 193.18572998046875 156.28977966308594" fill="none" stroke="rgb(0, 0, 0)" stroke-linecap="round" stroke-linejoin="round" stroke-opacity="1.0" stroke-width="3.0"/>
    <path d="M 177.84674072265625 100.56011962890625 C 160.79507446289062 115.65360260009766 131.00259399414062 93.1121826171875 198.5556640625 105.49874877929688" fill="none" stroke="rgb(0, 0, 0)" stroke-linecap="round" stroke-linejoin="round" stroke-opacity="1.0" stroke-width="3.0"/>
    <path d="M 195.57286071777344 189.58303833007812 C 169.98353576660156 184.36886596679688 206.89776611328125 121.67267608642578 186.04989624023438 185.0807647705078" fill="none" stroke="rgb(0, 0, 0)" stroke-linecap="round" stroke-linejoin="round" stroke-opacity="1.0" stroke-width="3.0"/>
    <path d="M 114.02484130859375 113.08636474609375 C 175.38766479492188 112.42750549316406 162.33938598632812 120.18759155273438 125.52546691894531 186.43869018554688" fill="none" stroke="rgb(0, 0, 0)" stroke-linecap="round" stroke-linejoin="round" stroke-opacity="1.0" stroke-width="3.0"/>
    <path d="M 65.4124526977539 153.35633850097656 C 84.45915222167969 176.777099609375 92.12408447265625 166.39901733398438 90.32411193847656 193.37176513671875" fill="none" stroke="rgb(0, 0, 0)" stroke-linecap="round" stroke-linejoin="round" stroke-opacity="1.0" stroke-width="3.0"/>
    <path d="M 80.92063903808594 91.29420471191406 C 79.3660888671875 71.88923645019531 74.01296997070312 104.83012390136719 78.05029296875 93.46742248535156" fill="none" stroke="rgb(0, 0, 0)" stroke-linecap="round" stroke-linejoin="round" stroke-opacity="1.0" stroke-width="3.0"/>
    <path d="M 147.6029052734375 94.87964630126953 C 173.81935119628906 99.33700561523438 137.9249267578125 78.50132751464844 151.24000549316406 103.02051544189453" fill="none" stroke="rgb(0, 0, 0)" stroke-linecap="round" stroke-linejoin="round" stroke-opacity="1.0" stroke-width="3.0"/>
    <path d="M 65.83172607421875 129.24984741210938 C 98.84381866455078 100.34432983398438 149.0292205810547 132.6181182861328 87.33203887939453 113.89173889160156" fill="none" stroke="rgb(0, 0, 0)" stroke-linecap="round" stroke-linejoin="round" stroke-opacity="1.0" stroke-width="3.0"/>
    <path d="M 64.45123291015625 126.91242218017578 C 79.22398376464844 69.15240478515625 92.58345794677734 107.23918914794922 71.01661682128906 82.51638793945312" fill="none" stroke="rgb(0, 0, 0)" stroke-linecap="round" stroke-linejoin="round" stroke-opacity="1.0" stroke-width="3.0"/>
    <path d="M 72.63269805908203 115.85780334472656 C 87.32746887207031 144.0330352783203 84.02378845214844 97.30960083007812 85.30258178710938 129.12521362304688" fill="none" stroke="rgb(0, 0, 0)" stroke-linecap="round" stroke-linejoin="round" stroke-opacity="1.0" stroke-width="3.0"/>
    <path d="M 152.454345703125 98.9722671508789 C 143.31553649902344 83.40713500976562 160.01290893554688 90.56134796142578 171.08055114746094 130.13143920898438" fill="none" stroke="rgb(0, 0, 0)" stroke-linecap="round" stroke-linejoin="round" stroke-opacity="1.0" stroke-width="3.0"/>
    <path d="M 70.15309143066406 120.06864166259766 C 44.18872833251953 154.64805603027344 73.13429260253906 120.77214050292969 56.91310119628906 162.32351684570312" fill="none" stroke="rgb(0, 0, 0)" stroke-linecap="round" stroke-linejoin="round" stroke-opacity="1.0" stroke-width="3.0"/>
    <path d="M 132.86593627929688 112.83219146728516 C 193.86598205566406 114.40220642089844 165.76974487304688 95.47006225585938 171.63815307617188 134.07968139648438" fill="none" stroke="rgb(0, 0, 0)" stroke-linecap="round" stroke-linejoin="round" stroke-opacity="1.0" stroke-width="3.0"/>
    <path d="M 85.9796142578125 112.94146728515625 C 74.53990173339844 93.63256072998047 98.04289245605469 102.57939147949219 79.30658721923828 113.85430908203125" fill="none" stroke="rgb(0, 0, 0)" stroke-linecap="round" stroke-linejoin="round" stroke-opacity="1.0" stroke-width="3.0"/>
    <path d="M 90.61278533935547 123.21725463867188 C 84.11866760253906 141.7850341796875 44.14289093017578 106.40825653076172 95.14466094970703 189.50640869140625" fill="none" stroke="rgb(0, 0, 0)" stroke-linecap="round" stroke-linejoin="round" stroke-opacity="1.0" stroke-width="3.0"/>
    <path d="M 171.77467346191406 105.86113739013672 C 106.23434448242188 126.02326965332031 199.91453552246094 84.63638305664062 191.91177368164062 107.87663269042969" fill="none" stroke="rgb(0, 0, 0)" stroke-linecap="round" stroke-linejoin="round" stroke-opacity="1.0" stroke-width="3.0"/>
  </g>
</svg>
