<?xml version="1.0" ?>
<svg height="256" version="1.1" width="256" xmlns="http://www.w3.org/2000/svg">
  <defs/>
  <g>
    <path d="M 188.9134521484375 73.91519927978516 C 170.90194702148438 65.04741668701172 89.33329772949219 126.09767150878906 186.04843139648438 74.5747299194336" fill="none" stroke="rgb(0, 0, 0)" stroke-linecap="round" stroke-linejoin="round" stroke-opacity="1.0" stroke-width="3.0"/>
    <path d="M 95.13118743896484 54.62801742553711 C 110.40023040771484 52.60743713378906 150.28756713867188 84.10503387451172 95.27604675292969 57.0450553894043" fill="none" stroke="rgb(0, 0, 0)" stroke-linecap="round" stroke-linejoin="round" stroke-opacity="1.0" stroke-width="3.0"/>
    <path d="M 17.379417419433594 177.4532012939453 C 78.13090515136719 159.54441833496094 18.22211456298828 184.97186279296875 85.27049255371094 102.11833190917969" fill="none" stroke="rgb(0, 0, 0)" stroke-linecap="round" stroke-linejoin="round" stroke-opacity="1.0" stroke-width="3.0"/>
    <path d="M 174.7462158203125 89.49138641357422 C 166.89785766601562 102.71782684326172 178.509033203125 110.52896118164062 148.8673553466797 118.47219848632812" fill="none" stroke="rgb(0, 0, 0)" stroke-linecap="round" stroke-linejoin="round" stroke-opacity="1.0" stroke-width="3.0"/>
    <path d="M 96.50340270996094 83.01907348632812 C 29.25322723388672 153.3139190673828 85.74739074707031 145.98953247070312 20.183082580566406 173.927978515625" fill="none" stroke="rgb(0, 0, 0)" stroke-linecap="round" stroke-linejoin="round" stroke-opacity="1.0" stroke-width="3.0"/>
    <path d="M 116.94867706298828 66.9261474609375 C 88.32232666015625 60.9852409362793 125.5064697265625 86.51705932617188 98.59278869628906 58.5250129699707" fill="none" stroke="rgb(0, 0, 0)" stroke-linecap="round" stroke-linejoin="round" stroke-opacity="1.0" stroke-width="3.0"/>
    <path d="M 108.6788558959961 60.3371696472168 C 113.89652252197266 75.89324188232422 117.0792007446289 61.88594055175781 105.32958984375 70.39592742919922" fill="none" stroke="rgb(0, 0, 0)" stroke-linecap="round" stroke-linejoin="round" stroke-opacity="1.0" stroke-width="3.0"/>
    <path d="M 75.32798767089844 117.6321792602539 C 132.21762084960938 92.92805480957031 123.75702667236328 107.36854553222656 143.5985565185547 93.84324645996094" fill="none" stroke="rgb(0, 0, 0)" stroke-linecap="round" stroke-linejoin="round" stroke-opacity="1.0" stroke-width="3.0"/>
    <path d="M 219.10772705078125 81.70985412597656 C 236.34719848632812 81.07146453857422 210.41024780273438 79.59092712402344 185.54876708984375 73.25273132324219" fill="none" stroke="rgb(0, 0, 0)" stroke-linecap="round" stroke-linejoin="round" stroke-opacity="1.0" stroke-width="3.0"/>
    <path d="M 55.522315979003906 143.59152221679688 C 105.23619079589844 89.56277465820312 60.368202209472656 121.94437408447266 119.97578430175781 87.80322265625" fill="none" stroke="rgb(0, 0, 0)" stroke-linecap="round" stroke-linejoin="round" stroke-opacity="1.0" stroke-width="3.0"/>
    <path d="M 175.58238220214844 92.00841522216797 C 211.52490234375 77.03753662109375 200.69976806640625 86.45332336425781 224.8857421875 83.26140594482422" fill="none" stroke="rgb(0, 0, 0)" stroke-linecap="round" stroke-linejoin="round" stroke-opacity="1.0" stroke-width="3.0"/>
    <path d="M 116.69471740722656 89.9753646850586 C 160.90151977539062 50.999393463134766 217.14645385742188 39.826236724853516 147.46060180664062 111.77549743652344" fill="none" stroke="rgb(0, 0, 0)" stroke-linecap="round" stroke-linejoin="round" stroke-opacity="1.0" stroke-width="3.0"/>
    <path d="M 65.14189147949219 125.61677551269531 C 99.65342712402344 82.6571273803711 116.35955047607422 94.29571533203125 88.81834411621094 107.23478698730469" fill="none" stroke="rgb(0, 0, 0)" stroke-linecap="round" stroke-linejoin="round" stroke-opacity="1.0" stroke-width="3.0"/>
    <path d="M 101.42012023925781 56.4843864440918 C 143.23162841796875 72.69728088378906 106.89122009277344 66.04644012451172 92.95079040527344 84.70934295654297" fill="none" stroke="rgb(0, 0, 0)" stroke-linecap="round" stroke-linejoin="round" stroke-opacity="1.0" stroke-width="3.0"/>
    <path d="M 67.52625274658203 131.1226348876953 C 120.83988189697266 83.1757583618164 111.85159301757812 86.8482437133789 36.98552703857422 174.5775146484375" fill="none" stroke="rgb(0, 0, 0)" stroke-linecap="round" stroke-linejoin="round" stroke-opacity="1.0" stroke-width="3.0"/>
    <path d="M 119.31534576416016 68.62477111816406 C 164.09825134277344 46.74845886230469 197.54864501953125 54.905921936035156 210.49481201171875 75.4963150024414" fill="none" stroke="rgb(0, 0, 0)" stroke-linecap="round" stroke-linejoin="round" stroke-opacity="1.0" stroke-width="3.0"/>
  </g>
</svg>
