<?xml version="1.0" ?>
<svg height="256" version="1.1" width="256" xmlns="http://www.w3.org/2000/svg">
  <defs/>
  <g>
    <path d="M 81.81840515136719 156.18011474609375 C 96.87689208984375 139.239990234375 79.03901672363281 163.6266326904297 136.70132446289062 127.69220733642578" fill="none" stroke="rgb(0, 0, 0)" stroke-linecap="round" stroke-linejoin="round" stroke-opacity="1.0" stroke-width="3.0"/>
    <path d="M 138.49923706054688 174.93722534179688 C 101.66667175292969 134.17324829101562 131.55337524414062 152.97561645507812 123.86205291748047 136.6675567626953" fill="none" stroke="rgb(0, 0, 0)" stroke-linecap="round" stroke-linejoin="round" stroke-opacity="1.0" stroke-width="3.0"/>
    <path d="M 78.05618286132812 145.3842010498047 C 140.86801147460938 117.8263168334961 110.88206481933594 109.77296447753906 83.15158081054688 161.87637329101562" fill="none" stroke="rgb(0, 0, 0)" stroke-linecap="round" stroke-linejoin="round" stroke-opacity="1.0" stroke-width="3.0"/>
    <path d="M 114.669189453125 119.57917022705078 C 59.324127197265625 162.63015747070312 60.25020980834961 143.6193389892578 144.3280487060547 92.8220443725586" fill="none" stroke="rgb(0, 0, 0)" stroke-linecap="round" stroke-linejoin="round" stroke-opacity="1.0" stroke-width="3.0"/>
    <path d="M 75.90415954589844 160.5621337890625 C 158.24510192871094 128.1657257080078 146.7505340576172 119.1690902709961 87.34681701660156 152.24490356445312" fill="none" stroke="rgb(0, 0, 0)" stroke-linecap="round" stroke-linejoin="round" stroke-opacity="1.0" stroke-width="3.0"/>
    <path d="M 142.0967559814453 82.94529724121094 C 87.99977111816406 146.05169677734375 54.73722839355469 142.6956787109375 121.99092864990234 104.65806579589844" fill="none" stroke="rgb(0, 0, 0)" stroke-linecap="round" stroke-linejoin="round" stroke-opacity="1.0" stroke-width="3.0"/>
    <path d="M 172.46875 176.20497131347656 C 194.37644958496094 152.81263732910156 201.41925048828125 97.7762680053711 150.39540100097656 92.16455078125" fill="none" stroke="rgb(0, 0, 0)" stroke-linecap="round" stroke-linejoin="round" stroke-opacity="1.0" stroke-width="3.0"/>
    <path d="M 123.1351089477539 136.9091339111328 C 55.337520599365234 170.275146484375 66.02435302734375 170.0712890625 147.10231018066406 97.8610610961914" fill="none" stroke="rgb(0, 0, 0)" stroke-linecap="round" stroke-linejoin="round" stroke-opacity="1.0" stroke-width="3.0"/>
    <path d="M 102.20193481445312 119.85118865966797 C 74.25981903076172 155.84536743164062 42.54425811767578 204.17933654785156 89.51927947998047 153.86175537109375" fill="none" stroke="rgb(0, 0, 0)" stroke-linecap="round" stroke-linejoin="round" stroke-opacity="1.0" stroke-width="3.0"/>
    <path d="M 148.0238037109375 86.5069351196289 C 44.04851531982422 129.92640686035156 82.30506134033203 158.4412841796875 69.60101318359375 171.58203125" fill="none" stroke="rgb(0, 0, 0)" stroke-linecap="round" stroke-linejoin="round" stroke-opacity="1.0" stroke-width="3.0"/>
    <path d="M 176.81207275390625 117.23919677734375 C 197.04307556152344 205.85525512695312 173.90084838867188 139.50921630859375 195.42080688476562 175.2637939453125" fill="none" stroke="rgb(0, 0, 0)" stroke-linecap="round" stroke-linejoin="round" stroke-opacity="1.0" stroke-width="3.0"/>
    <path d="M 90.95195770263672 140.9539794921875 C 163.36033630371094 150.2584228515625 130.04519653320312 87.84259033203125 176.17535400390625 116.22981262207031" fill="none" stroke="rgb(0, 0, 0)" stroke-linecap="round" stroke-linejoin="round" stroke-opacity="1.0" stroke-width="3.0"/>
    <path d="M 98.17200469970703 152.70791625976562 C 54.102745056152344 169.44064331054688 77.21087646484375 130.84425354003906 140.5038299560547 94.74066162109375" fill="none" stroke="rgb(0, 0, 0)" stroke-linecap="round" stroke-linejoin="round" stroke-opacity="1.0" stroke-width="3.0"/>
    <path d="M 70.42428588867188 168.89016723632812 C 143.2425079345703 125.19660949707031 93.10734558105469 164.83233642578125 139.82130432128906 178.60536193847656" fill="none" stroke="rgb(0, 0, 0)" stroke-linecap="round" stroke-linejoin="round" stroke-opacity="1.0" stroke-width="3.0"/>
    <path d="M 102.41722869873047 131.63185119628906 C 154.70834350585938 95.13079833984375 124.31770324707031 67.97183990478516 143.02786254882812 53.952850341796875" fill="none" stroke="rgb(0, 0, 0)" stroke-linecap="round" stroke-linejoin="round" stroke-opacity="1.0" stroke-width="3.0"/>
    <path d="M 145.07603454589844 52.39177703857422 C 122.65930938720703 109.94258117675781 186.16946411132812 68.27882385253906 186.24969482421875 145.3502655029297" fill="none" stroke="rgb(0, 0, 0)" stroke-linecap="round" stroke-linejoin="round" stroke-opacity="1.0" stroke-width="3.0"/>
  </g>
</svg>
