<?xml version="1.0" ?>
<svg height="256" version="1.1" width="256" xmlns="http://www.w3.org/2000/svg">
  <defs/>
  <g>
    <path d="M 110.7978744506836 162.52096557617188 C 48.25823211669922 203.77911376953125 69.39739990234375 180.7615509033203 59.318580627441406 187.36349487304688" fill="none" stroke="rgb(0, 0, 0)" stroke-linecap="round" stroke-linejoin="round" stroke-opacity="1.0" stroke-width="3.0"/>
    <path d="M 45.394630432128906 82.75392150878906 C 149.81776428222656 185.02586364746094 65.27161407470703 84.54607391357422 124.75432586669922 158.55093383789062" fill="none" stroke="rgb(0, 0, 0)" stroke-linecap="round" stroke-linejoin="round" stroke-opacity="1.0" stroke-width="3.0"/>
    <path d="M 101.98956298828125 182.5869903564453 C 196.05577087402344 170.27529907226562 179.87303161621094 127.21085357666016 134.0324249267578 140.04644775390625" fill="none" stroke="rgb(0, 0, 0)" stroke-linecap="round" stroke-linejoin="round" stroke-opacity="1.0" stroke-width="3.0"/>
    <path d="M 87.4345474243164 147.31597900390625 C 133.9894256591797 172.14370727539062 79.39320373535156 158.12069702148438 46.80973815917969 94.73579406738281" fill="none" stroke="rgb(0, 0, 0)" stroke-linecap="round" stroke-linejoin="round" stroke-opacity="1.0" stroke-width="3.0"/>
    <path d="M 103.7344741821289 157.1468505859375 C 80.46085357666016 159.00782775878906 168.66665649414062 153.0416259765625 93.99046325683594 195.41490173339844" fill="none" stroke="rgb(0, 0, 0)" stroke-linecap="round" stroke-linejoin="round" stroke-opacity="1.0" stroke-width="3.0"/>
    <path d="M 43.60828399658203 71.95527648925781 C 156.50732421875 146.0086669921875 82.65504455566406 104.78299713134766 62.006675720214844 52.33311462402344" fill="none" stroke="rgb(0, 0, 0)" stroke-linecap="round" stroke-linejoin="round" stroke-opacity="1.0" stroke-width="3.0"/>
    <path d="M 92.11128997802734 111.16850280761719 C 84.69825744628906 57.76060485839844 75.9830093383789 74.72850036621094 71.7177734375 53.17609405517578" fill="none" stroke="rgb(0, 0, 0)" stroke-linecap="round" stroke-linejoin="round" stroke-opacity="1.0" stroke-width="3.0"/>
    <path d="M 203.21897888183594 108.06182098388672 C 156.9982147216797 125.44654083251953 114.0439224243164 145.20823669433594 194.78140258789062 121.4270248413086" fill="none" stroke="rgb(0, 0, 0)" stroke-linecap="round" stroke-linejoin="round" stroke-opacity="1.0" stroke-width="3.0"/>
    <path d="M 205.20947265625 105.02400207519531 C 124.77530670166016 124.81039428710938 204.9741973876953 115.11827087402344 196.0531005859375 90.30228424072266" fill="none" stroke="rgb(0, 0, 0)" stroke-linecap="round" stroke-linejoin="round" stroke-opacity="1.0" stroke-width="3.0"/>
    <path d="M 149.40548706054688 159.92440795898438 C 217.52781677246094 165.00714111328125 139.56784057617188 137.36447143554688 170.58982849121094 148.421875" fill="none" stroke="rgb(0, 0, 0)" stroke-linecap="round" stroke-linejoin="round" stroke-opacity="1.0" stroke-width="3.0"/>
    <path d="M 141.04190063476562 138.72750854492188 C 194.47482299804688 83.00996398925781 192.5197296142578 148.82162475585938 206.94076538085938 98.20545959472656" fill="none" stroke="rgb(0, 0, 0)" stroke-linecap="round" stroke-linejoin="round" stroke-opacity="1.0" stroke-width="3.0"/>
    <path d="M 147.12130737304688 133.3910675048828 C 230.32272338867188 181.09542846679688 121.42864227294922 135.98739624023438 179.86221313476562 163.9827880859375" fill="none" stroke="rgb(0, 0, 0)" stroke-linecap="round" stroke-linejoin="round" stroke-opacity="1.0" stroke-width="3.0"/>
    <path d="M 89.166748046875 97.85255432128906 C 120.37983703613281 118.27356719970703 123.7001724243164 143.23609924316406 146.9958953857422 154.13734436035156" fill="none" stroke="rgb(0, 0, 0)" stroke-linecap="round" stroke-linejoin="round" stroke-opacity="1.0" stroke-width="3.0"/>
    <path d="M 189.205322265625 94.59318542480469 C 132.72964477539062 161.5811767578125 159.52711486816406 146.20492553710938 208.89178466796875 92.15086364746094" fill="none" stroke="rgb(0, 0, 0)" stroke-linecap="round" stroke-linejoin="round" stroke-opacity="1.0" stroke-width="3.0"/>
    <path d="M 172.81332397460938 160.4219512939453 C 139.0745086669922 129.4327850341797 229.45291137695312 183.79551696777344 156.83309936523438 162.04649353027344" fill="none" stroke="rgb(0, 0, 0)" stroke-linecap="round" stroke-linejoin="round" stroke-opacity="1.0" stroke-width="3.0"/>
    <path d="M 102.34640502929688 115.14421081542969 C 74.7425308227539 80.19032287597656 61.94322967529297 82.14096069335938 52.257545471191406 60.868377685546875" fill="none" stroke="rgb(0, 0, 0)" stroke-linecap="round" stroke-linejoin="round" stroke-opacity="1.0" stroke-width="3.0"/>
  </g>
</svg>
