<?xml version="1.0" ?>
<svg height="256" version="1.1" width="256" xmlns="http://www.w3.org/2000/svg">
  <defs/>
  <g>
    <path d="M 146.51036071777344 103.7824935913086 C 155.90219116210938 124.73554229736328 147.08116149902344 116.75718688964844 168.54029846191406 83.65631103515625" fill="none" stroke="rgb(0, 0, 0)" stroke-linecap="round" stroke-linejoin="round" stroke-opacity="1.0" stroke-width="3.0"/>
    <path d="M 116.95100402832031 114.09624481201172 C 128.21670532226562 103.95549774169922 105.2641830444336 118.68395233154297 124.3213119506836 93.6844482421875" fill="none" stroke="rgb(0, 0, 0)" stroke-linecap="round" stroke-linejoin="round" stroke-opacity="1.0" stroke-width="3.0"/>
    <path d="M 164.62149047851562 150.1949920654297 C 131.97535705566406 132.2473602294922 153.70358276367188 137.6094207763672 137.95999145507812 117.88092803955078" fill="none" stroke="rgb(0, 0, 0)" stroke-linecap="round" stroke-linejoin="round" stroke-opacity="1.0" stroke-width="3.0"/>
    <path d="M 90.094482421875 135.91873168945312 C 91.99313354492188 124.44916534423828 101.64309692382812 141.59051513671875 90.10406494140625 137.45309448242188" fill="none" stroke="rgb(0, 0, 0)" stroke-linecap="round" stroke-linejoin="round" stroke-opacity="1.0" stroke-width="3.0"/>
    <path d="M 126.35997009277344 148.67312622070312 C 164.43862915039062 166.49942016601562 133.3583526611328 118.7425537109375 157.32351684570312 162.43246459960938" fill="none" stroke="rgb(0, 0, 0)" stroke-linecap="round" stroke-linejoin="round" stroke-opacity="1.0" stroke-width="3.0"/>
    <path d="M 123.50296783447266 111.29821014404297 C 117.08234405517578 122.66340637207031 77.63760375976562 118.69866943359375 85.04898071289062 140.7996826171875" fill="none" stroke="rgb(0, 0, 0)" stroke-linecap="round" stroke-linejoin="round" stroke-opacity="1.0" stroke-width="3.0"/>
    <path d="M 128.01644897460938 97.20182800292969 C 114.88971710205078 117.25029754638672 113.28963470458984 105.12730407714844 145.7722625732422 111.39886474609375" fill="none" stroke="rgb(0, 0, 0)" stroke-linecap="round" stroke-linejoin="round" stroke-opacity="1.0" stroke-width="3.0"/>
    <path d="M 132.42152404785156 110.91742706298828 C 92.7245864868164 120.36079406738281 129.15147399902344 96.68310546875 192.51705932617188 130.03550720214844" fill="none" stroke="rgb(0, 0, 0)" stroke-linecap="round" stroke-linejoin="round" stroke-opacity="1.0" stroke-width="3.0"/>
    <path d="M 136.26332092285156 104.46418762207031 C 94.68983459472656 135.0177001953125 112.18697357177734 112.34085083007812 119.91558837890625 145.3310546875" fill="none" stroke="rgb(0, 0, 0)" stroke-linecap="round" stroke-linejoin="round" stroke-opacity="1.0" stroke-width="3.0"/>
    <path d="M 146.80136108398438 154.9426727294922 C 56.76853942871094 162.00271606445312 81.83323669433594 131.11398315429688 90.2403793334961 127.12874603271484" fill="none" stroke="rgb(0, 0, 0)" stroke-linecap="round" stroke-linejoin="round" stroke-opacity="1.0" stroke-width="3.0"/>
    <path d="M 149.11827087402344 123.99763488769531 C 161.48663330078125 92.27316284179688 141.84278869628906 105.21721649169922 175.78097534179688 78.15550231933594" fill="none" stroke="rgb(0, 0, 0)" stroke-linecap="round" stroke-linejoin="round" stroke-opacity="1.0" stroke-width="3.0"/>
    <path d="M 85.23362731933594 132.89926147460938 C 85.39028930664062 139.13893127441406 75.34710693359375 147.98361206054688 82.2641830444336 146.2235870361328" fill="none" stroke="rgb(0, 0, 0)" stroke-linecap="round" stroke-linejoin="round" stroke-opacity="1.0" stroke-width="3.0"/>
    <path d="M 112.50227355957031 129.1385040283203 C 125.33413696289062 132.7748260498047 101.93415069580078 152.93040466308594 129.52012634277344 157.27041625976562" fill="none" stroke="rgb(0, 0, 0)" stroke-linecap="round" stroke-linejoin="round" stroke-opacity="1.0" stroke-width="3.0"/>
    <path d="M 128.47006225585938 100.2215576171875 C 120.96617126464844 123.52253723144531 111.97251892089844 93.0875473022461 152.96563720703125 113.27239990234375" fill="none" stroke="rgb(0, 0, 0)" stroke-linecap="round" stroke-linejoin="round" stroke-opacity="1.0" stroke-width="3.0"/>
    <path d="M 105.57694244384766 125.28054809570312 C 117.8016586303711 149.94320678710938 86.07476806640625 139.24832153320312 125.38422393798828 159.81494140625" fill="none" stroke="rgb(0, 0, 0)" stroke-linecap="round" stroke-linejoin="round" stroke-opacity="1.0" stroke-width="3.0"/>
    <path d="M 133.2158660888672 101.94216918945312 C 119.1360092163086 111.40507507324219 122.55826568603516 115.00126647949219 129.098388671875 106.19111633300781" fill="none" stroke="rgb(0, 0, 0)" stroke-linecap="round" stroke-linejoin="round" stroke-opacity="1.0" stroke-width="3.0"/>
  </g>
</svg>
