<?xml version="1.0" ?>
<svg height="256" version="1.1" width="256" xmlns="http://www.w3.org/2000/svg">
  <defs/>
  <g>
    <path d="M 233.3275146484375 157.40847778320312 C 196.43630981445312 167.29147338867188 199.113037109375 114.88720703125 161.22589111328125 82.44072723388672" fill="none" stroke="rgb(0, 0, 0)" stroke-linecap="round" stroke-linejoin="round" stroke-opacity="1.0" stroke-width="3.0"/>
    <path d="M 187.75949096679688 24.843185424804688 C 197.30648803710938 61.78799057006836 195.22244262695312 21.562599182128906 212.90774536132812 89.57746124267578" fill="none" stroke="rgb(0, 0, 0)" stroke-linecap="round" stroke-linejoin="round" stroke-opacity="1.0" stroke-width="3.0"/>
    <path d="M 40.42889404296875 293.7907409667969 C 36.800636291503906 263.6416931152344 36.934173583984375 217.73822021484375 39.65601348876953 144.3670196533203" fill="none" stroke="rgb(0, 0, 0)" stroke-linecap="round" stroke-linejoin="round" stroke-opacity="1.0" stroke-width="3.0"/>
    <path d="M 93.76177978515625 114.105712890625 C 85.06059265136719 77.14482879638672 84.15754699707031 75.14276123046875 75.40216064453125 70.23269653320312" fill="none" stroke="rgb(0, 0, 0)" stroke-linecap="round" stroke-linejoin="round" stroke-opacity="1.0" stroke-width="3.0"/>
    <path d="M 132.15481567382812 158.2809600830078 C 86.96263885498047 156.48402404785156 101.60989379882812 194.98468017578125 40.906700134277344 126.64627838134766" fill="none" stroke="rgb(0, 0, 0)" stroke-linecap="round" stroke-linejoin="round" stroke-opacity="1.0" stroke-width="3.0"/>
    <path d="M 29.463233947753906 266.4494934082031 C 44.17502212524414 56.0626335144043 27.477645874023438 -0.07575225830078125 37.465118408203125 38.64778137207031" fill="none" stroke="rgb(0, 0, 0)" stroke-linecap="round" stroke-linejoin="round" stroke-opacity="1.0" stroke-width="3.0"/>
    <path d="M 35.46173095703125 42.70553970336914 C 16.889266967773438 24.221099853515625 51.349388122558594 23.81574249267578 34.620201110839844 42.737735748291016" fill="none" stroke="rgb(0, 0, 0)" stroke-linecap="round" stroke-linejoin="round" stroke-opacity="1.0" stroke-width="3.0"/>
    <path d="M 40.17455291748047 66.63861083984375 C 56.68849182128906 104.1505126953125 57.165855407714844 86.16785430908203 70.7655258178711 115.35674285888672" fill="none" stroke="rgb(0, 0, 0)" stroke-linecap="round" stroke-linejoin="round" stroke-opacity="1.0" stroke-width="3.0"/>
    <path d="M 206.88499450683594 80.27477264404297 C 230.84310913085938 117.06732940673828 213.74114990234375 89.70636749267578 237.86456298828125 157.86846923828125" fill="none" stroke="rgb(0, 0, 0)" stroke-linecap="round" stroke-linejoin="round" stroke-opacity="1.0" stroke-width="3.0"/>
    <path d="M 235.9955596923828 161.76991271972656 C 188.53900146484375 183.46524047851562 233.50389099121094 151.1179962158203 117.7284927368164 159.60922241210938" fill="none" stroke="rgb(0, 0, 0)" stroke-linecap="round" stroke-linejoin="round" stroke-opacity="1.0" stroke-width="3.0"/>
    <path d="M 87.39787292480469 55.55453109741211 C 97.0892562866211 45.10258483886719 60.33964157104492 63.5910530090332 39.772926330566406 61.23613357543945" fill="none" stroke="rgb(0, 0, 0)" stroke-linecap="round" stroke-linejoin="round" stroke-opacity="1.0" stroke-width="3.0"/>
    <path d="M 51.92290115356445 117.33613586425781 C 30.89592742919922 125.53935241699219 30.45087432861328 87.4980239868164 44.809261322021484 166.66693115234375" fill="none" stroke="rgb(0, 0, 0)" stroke-linecap="round" stroke-linejoin="round" stroke-opacity="1.0" stroke-width="3.0"/>
    <path d="M 81.62438201904297 55.853755950927734 C 94.78461456298828 65.44854736328125 80.85679626464844 121.82772827148438 104.59306335449219 144.2612762451172" fill="none" stroke="rgb(0, 0, 0)" stroke-linecap="round" stroke-linejoin="round" stroke-opacity="1.0" stroke-width="3.0"/>
    <path d="M 202.95123291015625 65.84710693359375 C 127.70409393310547 53.45069885253906 155.25286865234375 79.234130859375 92.6619644165039 70.84249877929688" fill="none" stroke="rgb(0, 0, 0)" stroke-linecap="round" stroke-linejoin="round" stroke-opacity="1.0" stroke-width="3.0"/>
    <path d="M 56.91991424560547 118.62911987304688 C 96.77379608154297 140.11985778808594 72.51103210449219 145.9000701904297 108.22042846679688 155.562744140625" fill="none" stroke="rgb(0, 0, 0)" stroke-linecap="round" stroke-linejoin="round" stroke-opacity="1.0" stroke-width="3.0"/>
    <path d="M 87.12896728515625 54.76980972290039 C 151.73707580566406 45.26358413696289 137.3488006591797 32.55303955078125 186.44473266601562 25.161895751953125" fill="none" stroke="rgb(0, 0, 0)" stroke-linecap="round" stroke-linejoin="round" stroke-opacity="1.0" stroke-width="3.0"/>
  </g>
</svg>
