<?xml version="1.0" ?>
<svg height="256" version="1.1" width="256" xmlns="http://www.w3.org/2000/svg">
  <defs/>
  <g>
    <path d="M 57.084999084472656 121.46361541748047 C 141.4184112548828 176.95196533203125 88.78169250488281 129.6849822998047 154.48614501953125 172.41278076171875" fill="none" stroke="rgb(0, 0, 0)" stroke-linecap="round" stroke-linejoin="round" stroke-opacity="1.0" stroke-width="3.0"/>
    <path d="M 112.88517761230469 71.26322174072266 C 62.05093765258789 42.60508728027344 69.44546508789062 49.878543853759766 97.8353042602539 76.21136474609375" fill="none" stroke="rgb(0, 0, 0)" stroke-linecap="round" stroke-linejoin="round" stroke-opacity="1.0" stroke-width="3.0"/>
    <path d="M 41.86138916015625 257.51214599609375 C 43.06336212158203 178.33290100097656 41.90214538574219 162.53558349609375 50.28816223144531 112.74781799316406" fill="none" stroke="rgb(0, 0, 0)" stroke-linecap="round" stroke-linejoin="round" stroke-opacity="1.0" stroke-width="3.0"/>
    <path d="M 47.258575439453125 129.07675170898438 C 39.563507080078125 196.71957397460938 58.68611145019531 136.26235961914062 56.620033264160156 109.25489044189453" fill="none" stroke="rgb(0, 0, 0)" stroke-linecap="round" stroke-linejoin="round" stroke-opacity="1.0" stroke-width="3.0"/>
    <path d="M 144.80963134765625 94.54535675048828 C 200.95066833496094 133.58740234375 184.94532775878906 168.42474365234375 238.03131103515625 182.31155395507812" fill="none" stroke="rgb(0, 0, 0)" stroke-linecap="round" stroke-linejoin="round" stroke-opacity="1.0" stroke-width="3.0"/>
    <path d="M 178.48748779296875 91.33826446533203 C 92.70391845703125 64.56947326660156 152.5272216796875 94.74457550048828 59.52825164794922 42.941795349121094" fill="none" stroke="rgb(0, 0, 0)" stroke-linecap="round" stroke-linejoin="round" stroke-opacity="1.0" stroke-width="3.0"/>
    <path d="M 46.94685363769531 138.51388549804688 C 44.35565185546875 -103.44783020019531 52.10692596435547 62.39523696899414 43.99192810058594 32.19249725341797" fill="none" stroke="rgb(0, 0, 0)" stroke-linecap="round" stroke-linejoin="round" stroke-opacity="1.0" stroke-width="3.0"/>
    <path d="M 118.2947998046875 74.34487915039062 C 188.46861267089844 111.56709289550781 183.83450317382812 98.43739318847656 198.86947631835938 113.17253112792969" fill="none" stroke="rgb(0, 0, 0)" stroke-linecap="round" stroke-linejoin="round" stroke-opacity="1.0" stroke-width="3.0"/>
    <path d="M 121.755126953125 74.7861328125 C 196.22364807128906 80.38833618164062 115.83526611328125 93.56678771972656 231.9803466796875 93.84062957763672" fill="none" stroke="rgb(0, 0, 0)" stroke-linecap="round" stroke-linejoin="round" stroke-opacity="1.0" stroke-width="3.0"/>
    <path d="M 157.93849182128906 172.43524169921875 C 223.03273010253906 182.35374450683594 185.27047729492188 195.56915283203125 235.3199462890625 186.19105529785156" fill="none" stroke="rgb(0, 0, 0)" stroke-linecap="round" stroke-linejoin="round" stroke-opacity="1.0" stroke-width="3.0"/>
    <path d="M 54.06288146972656 37.474876403808594 C 104.02494812011719 94.93275451660156 91.19776916503906 117.9511489868164 116.43232727050781 143.95114135742188" fill="none" stroke="rgb(0, 0, 0)" stroke-linecap="round" stroke-linejoin="round" stroke-opacity="1.0" stroke-width="3.0"/>
    <path d="M 234.89889526367188 95.82588195800781 C 245.382568359375 127.34689331054688 250.97943115234375 109.4932632446289 238.68389892578125 145.57423400878906" fill="none" stroke="rgb(0, 0, 0)" stroke-linecap="round" stroke-linejoin="round" stroke-opacity="1.0" stroke-width="3.0"/>
    <path d="M 54.375579833984375 59.959259033203125 C 54.98332977294922 145.23452758789062 62.43870544433594 86.02586364746094 104.76142883300781 150.40118408203125" fill="none" stroke="rgb(0, 0, 0)" stroke-linecap="round" stroke-linejoin="round" stroke-opacity="1.0" stroke-width="3.0"/>
    <path d="M 89.07638549804688 69.23238372802734 C 92.98257446289062 68.92493438720703 86.49533081054688 65.68814086914062 161.09930419921875 166.86557006835938" fill="none" stroke="rgb(0, 0, 0)" stroke-linecap="round" stroke-linejoin="round" stroke-opacity="1.0" stroke-width="3.0"/>
    <path d="M 236.66343688964844 177.08921813964844 C 256.6262512207031 142.48297119140625 244.08839416503906 166.21566772460938 197.15098571777344 111.39604949951172" fill="none" stroke="rgb(0, 0, 0)" stroke-linecap="round" stroke-linejoin="round" stroke-opacity="1.0" stroke-width="3.0"/>
    <path d="M 67.25750732421875 98.77777099609375 C 37.60102081298828 29.085250854492188 58.26148986816406 31.19537353515625 44.45625305175781 28.141342163085938" fill="none" stroke="rgb(0, 0, 0)" stroke-linecap="round" stroke-linejoin="round" stroke-opacity="1.0" stroke-width="3.0"/>
  </g>
</svg>
