<?xml version="1.0" ?>
<svg height="256" version="1.1" width="256" xmlns="http://www.w3.org/2000/svg">
  <defs/>
  <g>
    <path d="M 118.33948516845703 111.28654479980469 C 106.74726867675781 117.43965911865234 88.41179656982422 105.7763671875 62.52044677734375 112.39875030517578" fill="none" stroke="rgb(0, 0, 0)" stroke-linecap="round" stroke-linejoin="round" stroke-opacity="1.0" stroke-width="3.0"/>
    <path d="M 143.5405731201172 107.13078308105469 C 153.6322479248047 146.28509521484375 206.28155517578125 117.65210723876953 197.74652099609375 140.6909637451172" fill="none" stroke="rgb(0, 0, 0)" stroke-linecap="round" stroke-linejoin="round" stroke-opacity="1.0" stroke-width="3.0"/>
    <path d="M 191.54891967773438 75.66423034667969 C 147.289306640625 165.10765075683594 198.56951904296875 101.05896759033203 215.56246948242188 142.39492797851562" fill="none" stroke="rgb(0, 0, 0)" stroke-linecap="round" stroke-linejoin="round" stroke-opacity="1.0" stroke-width="3.0"/>
    <path d="M 41.18523406982422 95.98332214355469 C 87.65597534179688 144.29147338867188 90.30055236816406 97.96207427978516 55.18074035644531 139.3998565673828" fill="none" stroke="rgb(0, 0, 0)" stroke-linecap="round" stroke-linejoin="round" stroke-opacity="1.0" stroke-width="3.0"/>
    <path d="M 61.5532112121582 127.90162658691406 C 70.75064086914062 115.72514343261719 84.66915893554688 121.02467346191406 67.12358093261719 115.73095703125" fill="none" stroke="rgb(0, 0, 0)" stroke-linecap="round" stroke-linejoin="round" stroke-opacity="1.0" stroke-width="3.0"/>
    <path d="M 60.50654220581055 131.07350158691406 C 66.7021484375 108.57575225830078 72.97032165527344 114.5269546508789 59.59342956542969 131.92628479003906" fill="none" stroke="rgb(0, 0, 0)" stroke-linecap="round" stroke-linejoin="round" stroke-opacity="1.0" stroke-width="3.0"/>
    <path d="M 106.4139633178711 118.81666564941406 C 118.86695098876953 114.21992492675781 132.0701904296875 108.0450439453125 113.37298583984375 113.06722259521484" fill="none" stroke="rgb(0, 0, 0)" stroke-linecap="round" stroke-linejoin="round" stroke-opacity="1.0" stroke-width="3.0"/>
    <path d="M 52.34193420410156 169.54986572265625 C 141.76873779296875 120.98587799072266 67.72819519042969 166.30747985839844 164.6796875 130.4731903076172" fill="none" stroke="rgb(0, 0, 0)" stroke-linecap="round" stroke-linejoin="round" stroke-opacity="1.0" stroke-width="3.0"/>
    <path d="M 51.75489807128906 140.1454620361328 C -28.459068298339844 177.72128295898438 41.93675231933594 147.68771362304688 8.820014953613281 168.64251708984375" fill="none" stroke="rgb(0, 0, 0)" stroke-linecap="round" stroke-linejoin="round" stroke-opacity="1.0" stroke-width="3.0"/>
    <path d="M 68.21092224121094 124.11610412597656 C 30.613906860351562 60.045738220214844 14.945816040039062 104.33409881591797 81.47126007080078 113.82245635986328" fill="none" stroke="rgb(0, 0, 0)" stroke-linecap="round" stroke-linejoin="round" stroke-opacity="1.0" stroke-width="3.0"/>
    <path d="M 212.09994506835938 143.95753479003906 C 174.1719207763672 116.3591537475586 239.34747314453125 150.31288146972656 237.22238159179688 143.750244140625" fill="none" stroke="rgb(0, 0, 0)" stroke-linecap="round" stroke-linejoin="round" stroke-opacity="1.0" stroke-width="3.0"/>
    <path d="M 95.53377532958984 117.70710754394531 C 221.1968994140625 77.32097625732422 141.17726135253906 79.40424346923828 175.27394104003906 53.91830825805664" fill="none" stroke="rgb(0, 0, 0)" stroke-linecap="round" stroke-linejoin="round" stroke-opacity="1.0" stroke-width="3.0"/>
    <path d="M 169.2617645263672 63.87044906616211 C 205.50479125976562 40.76850891113281 161.8826141357422 100.50470733642578 202.289794921875 85.04008483886719" fill="none" stroke="rgb(0, 0, 0)" stroke-linecap="round" stroke-linejoin="round" stroke-opacity="1.0" stroke-width="3.0"/>
    <path d="M 90.20368194580078 140.00685119628906 C 30.181396484375 164.56439208984375 41.84077453613281 139.9520263671875 16.794921875 169.7935791015625" fill="none" stroke="rgb(0, 0, 0)" stroke-linecap="round" stroke-linejoin="round" stroke-opacity="1.0" stroke-width="3.0"/>
    <path d="M 152.142578125 40.63606262207031 C 154.63681030273438 38.47932434082031 139.146728515625 46.60858917236328 199.87432861328125 83.95172119140625" fill="none" stroke="rgb(0, 0, 0)" stroke-linecap="round" stroke-linejoin="round" stroke-opacity="1.0" stroke-width="3.0"/>
    <path d="M 156.81480407714844 50.60671615600586 C 223.40728759765625 82.98743438720703 196.79071044921875 126.08197784423828 170.60157775878906 40.91697692871094" fill="none" stroke="rgb(0, 0, 0)" stroke-linecap="round" stroke-linejoin="round" stroke-opacity="1.0" stroke-width="3.0"/>
  </g>
</svg>
