<?xml version="1.0" ?>
<svg height="256" version="1.1" width="256" xmlns="http://www.w3.org/2000/svg">
  <defs/>
  <g>
    <path d="M 52.46934509277344 201.8756866455078 C 62.52558898925781 178.8413848876953 53.88856887817383 194.5335693359375 75.81661987304688 167.3776092529297" fill="none" stroke="rgb(0, 0, 0)" stroke-linecap="round" stroke-linejoin="round" stroke-opacity="1.0" stroke-width="3.0"/>
    <path d="M 115.3743896484375 142.8024139404297 C 79.9669189453125 141.20782470703125 63.0776481628418 125.82772064208984 49.75510025024414 146.90390014648438" fill="none" stroke="rgb(0, 0, 0)" stroke-linecap="round" stroke-linejoin="round" stroke-opacity="1.0" stroke-width="3.0"/>
    <path d="M 115.4083251953125 223.4501495361328 C 116.1632080078125 128.17767333984375 130.6625213623047 212.18753051757812 148.86660766601562 123.970703125" fill="none" stroke="rgb(0, 0, 0)" stroke-linecap="round" stroke-linejoin="round" stroke-opacity="1.0" stroke-width="3.0"/>
    <path d="M 47.15829086303711 155.93235778808594 C 64.42538452148438 185.3271026611328 61.90510559082031 152.10400390625 47.48794937133789 196.0355224609375" fill="none" stroke="rgb(0, 0, 0)" stroke-linecap="round" stroke-linejoin="round" stroke-opacity="1.0" stroke-width="3.0"/>
    <path d="M 117.32147216796875 206.14862060546875 C 102.67631530761719 180.78366088867188 116.91152954101562 185.38514709472656 101.44070434570312 201.67593383789062" fill="none" stroke="rgb(0, 0, 0)" stroke-linecap="round" stroke-linejoin="round" stroke-opacity="1.0" stroke-width="3.0"/>
    <path d="M 56.35619354248047 146.3113250732422 C 46.91401290893555 154.89051818847656 75.7993392944336 191.24850463867188 52.51061248779297 151.91856384277344" fill="none" stroke="rgb(0, 0, 0)" stroke-linecap="round" stroke-linejoin="round" stroke-opacity="1.0" stroke-width="3.0"/>
    <path d="M 151.71551513671875 91.17666625976562 C 127.51814270019531 133.42181396484375 154.43716430664062 148.27459716796875 125.54519653320312 104.61898803710938" fill="none" stroke="rgb(0, 0, 0)" stroke-linecap="round" stroke-linejoin="round" stroke-opacity="1.0" stroke-width="3.0"/>
    <path d="M 130.3151092529297 144.04638671875 C 124.44507598876953 148.7942352294922 130.0461883544922 140.30963134765625 94.90478515625 140.52452087402344" fill="none" stroke="rgb(0, 0, 0)" stroke-linecap="round" stroke-linejoin="round" stroke-opacity="1.0" stroke-width="3.0"/>
    <path d="M 58.392112731933594 174.95721435546875 C 52.15104293823242 135.9860076904297 51.64542007446289 183.77879333496094 50.20466995239258 157.8131866455078" fill="none" stroke="rgb(0, 0, 0)" stroke-linecap="round" stroke-linejoin="round" stroke-opacity="1.0" stroke-width="3.0"/>
    <path d="M 103.43610382080078 174.5810089111328 C 106.10248565673828 189.57864379882812 109.24778747558594 174.24647521972656 98.36527252197266 216.59866333007812" fill="none" stroke="rgb(0, 0, 0)" stroke-linecap="round" stroke-linejoin="round" stroke-opacity="1.0" stroke-width="3.0"/>
    <path d="M 146.1851348876953 132.6135711669922 C 140.17945861816406 112.15289306640625 153.86065673828125 124.9119873046875 162.0209197998047 101.40528869628906" fill="none" stroke="rgb(0, 0, 0)" stroke-linecap="round" stroke-linejoin="round" stroke-opacity="1.0" stroke-width="3.0"/>
    <path d="M 76.46369171142578 155.10105895996094 C 63.951141357421875 192.72544860839844 52.78688430786133 172.63265991210938 57.439640045166016 203.39920043945312" fill="none" stroke="rgb(0, 0, 0)" stroke-linecap="round" stroke-linejoin="round" stroke-opacity="1.0" stroke-width="3.0"/>
    <path d="M 79.99317932128906 140.46728515625 C 88.0582046508789 133.1737060546875 86.86886596679688 143.03076171875 131.9960174560547 142.51966857910156" fill="none" stroke="rgb(0, 0, 0)" stroke-linecap="round" stroke-linejoin="round" stroke-opacity="1.0" stroke-width="3.0"/>
    <path d="M 126.66609954833984 94.10538482666016 C 147.47000122070312 110.67724609375 140.95204162597656 145.90725708007812 124.0784912109375 144.9407501220703" fill="none" stroke="rgb(0, 0, 0)" stroke-linecap="round" stroke-linejoin="round" stroke-opacity="1.0" stroke-width="3.0"/>
    <path d="M 79.12158966064453 161.89337158203125 C 87.90619659423828 175.14817810058594 125.2866439819336 163.557861328125 104.56889343261719 194.8328399658203" fill="none" stroke="rgb(0, 0, 0)" stroke-linecap="round" stroke-linejoin="round" stroke-opacity="1.0" stroke-width="3.0"/>
    <path d="M 161.11105346679688 103.22439575195312 C 123.95845031738281 138.1209716796875 115.85208129882812 95.80096435546875 152.81704711914062 113.29597473144531" fill="none" stroke="rgb(0, 0, 0)" stroke-linecap="round" stroke-linejoin="round" stroke-opacity="1.0" stroke-width="3.0"/>
  </g>
</svg>
