<?xml version="1.0" ?>
<svg height="224" version="1.1" width="224" xmlns="http://www.w3.org/2000/svg">
  <defs/>
  <g>
    <path d="M 63.64137268066406 126.884765625 C 55.22174072265625 100.51661682128906 56.05160903930664 49.11025619506836 32.96079635620117 96.59587860107422" fill="none" stroke="rgb(0, 0, 0)" stroke-linecap="round" stroke-linejoin="round" stroke-opacity="1.0" stroke-width="3.0"/>
    <path d="M 73.88251495361328 163.0806121826172 C 82.9924545288086 145.75994873046875 38.54597091674805 180.57186889648438 70.7752456665039 89.52790832519531" fill="none" stroke="rgb(0, 0, 0)" stroke-linecap="round" stroke-linejoin="round" stroke-opacity="1.0" stroke-width="3.0"/>
    <path d="M 47.783058166503906 58.16525650024414 C 133.23085021972656 86.27711486816406 87.32376098632812 114.10527801513672 48.533756256103516 56.50761032104492" fill="none" stroke="rgb(0, 0, 0)" stroke-linecap="round" stroke-linejoin="round" stroke-opacity="1.0" stroke-width="3.0"/>
    <path d="M 50.586326599121094 79.7802963256836 C -0.665881872177124 120.71429443359375 45.82884216308594 72.81150817871094 37.6118049621582 65.25155639648438" fill="none" stroke="rgb(0, 0, 0)" stroke-linecap="round" stroke-linejoin="round" stroke-opacity="1.0" stroke-width="3.0"/>
    <path d="M 44.48790740966797 70.49131774902344 C 53.95540237426758 55.48761749267578 49.94136047363281 95.32150268554688 38.52742385864258 80.2607192993164" fill="none" stroke="rgb(0, 0, 0)" stroke-linecap="round" stroke-linejoin="round" stroke-opacity="1.0" stroke-width="3.0"/>
    <path d="M 114.56086730957031 114.75679016113281 C 75.51689147949219 135.91619873046875 84.09246063232422 107.18608093261719 69.84410858154297 151.91421508789062" fill="none" stroke="rgb(0, 0, 0)" stroke-linecap="round" stroke-linejoin="round" stroke-opacity="1.0" stroke-width="3.0"/>
    <path d="M 91.0312271118164 79.07257080078125 C 107.21730041503906 85.38863372802734 105.4211196899414 75.79829406738281 61.50729751586914 69.4109115600586" fill="none" stroke="rgb(0, 0, 0)" stroke-linecap="round" stroke-linejoin="round" stroke-opacity="1.0" stroke-width="3.0"/>
    <path d="M 208.28843688964844 136.05299377441406 C 187.35244750976562 125.34994506835938 192.74212646484375 147.8959197998047 163.03890991210938 120.01180267333984" fill="none" stroke="rgb(0, 0, 0)" stroke-linecap="round" stroke-linejoin="round" stroke-opacity="1.0" stroke-width="3.0"/>
    <path d="M 107.96133422851562 87.22053527832031 C 65.85895538330078 74.90382385253906 53.62147521972656 80.57423400878906 108.54131317138672 87.8083724975586" fill="none" stroke="rgb(0, 0, 0)" stroke-linecap="round" stroke-linejoin="round" stroke-opacity="1.0" stroke-width="3.0"/>
    <path d="M 79.2412338256836 123.38902282714844 C 76.43602752685547 142.47068786621094 39.927120208740234 122.3056869506836 90.11772155761719 166.8579864501953" fill="none" stroke="rgb(0, 0, 0)" stroke-linecap="round" stroke-linejoin="round" stroke-opacity="1.0" stroke-width="3.0"/>
    <path d="M 126.34654235839844 163.6275177001953 C 155.27769470214844 126.39957427978516 130.93165588378906 137.80282592773438 121.42948150634766 116.0750503540039" fill="none" stroke="rgb(0, 0, 0)" stroke-linecap="round" stroke-linejoin="round" stroke-opacity="1.0" stroke-width="3.0"/>
    <path d="M 128.92367553710938 168.39697265625 C 152.71478271484375 113.53779602050781 165.30821228027344 141.3234100341797 148.9064483642578 97.66001892089844" fill="none" stroke="rgb(0, 0, 0)" stroke-linecap="round" stroke-linejoin="round" stroke-opacity="1.0" stroke-width="3.0"/>
    <path d="M 110.59040069580078 87.32120513916016 C 91.5846939086914 69.94840240478516 23.103466033935547 71.65406799316406 99.05752563476562 80.84171295166016" fill="none" stroke="rgb(0, 0, 0)" stroke-linecap="round" stroke-linejoin="round" stroke-opacity="1.0" stroke-width="3.0"/>
    <path d="M 36.93499755859375 60.76552200317383 C 108.1777114868164 84.91117095947266 48.45729446411133 40.820735931396484 40.07258605957031 68.58523559570312" fill="none" stroke="rgb(0, 0, 0)" stroke-linecap="round" stroke-linejoin="round" stroke-opacity="1.0" stroke-width="3.0"/>
    <path d="M 83.23632049560547 87.65707397460938 C 130.9936065673828 97.5420913696289 130.75440979003906 59.35402297973633 174.11875915527344 128.13681030273438" fill="none" stroke="rgb(0, 0, 0)" stroke-linecap="round" stroke-linejoin="round" stroke-opacity="1.0" stroke-width="3.0"/>
    <path d="M 210.99920654296875 132.5986328125 C 199.21932983398438 126.82331085205078 193.43560791015625 150.51072692871094 157.10940551757812 98.06737518310547" fill="none" stroke="rgb(0, 0, 0)" stroke-linecap="round" stroke-linejoin="round" stroke-opacity="1.0" stroke-width="3.0"/>
  </g>
</svg>
