<?xml version="1.0" ?>
<svg height="256" version="1.1" width="256" xmlns="http://www.w3.org/2000/svg">
  <defs/>
  <g>
    <path d="M 159.0781707763672 151.13223266601562 C 209.2761993408203 165.95286560058594 196.04031372070312 159.79214477539062 226.24716186523438 144.6667022705078" fill="none" stroke="rgb(0, 0, 0)" stroke-linecap="round" stroke-linejoin="round" stroke-opacity="1.0" stroke-width="3.0"/>
    <path d="M 157.47216796875 173.72451782226562 C 202.48968505859375 124.40191650390625 120.3655776977539 160.18316650390625 196.49624633789062 138.6057586669922" fill="none" stroke="rgb(0, 0, 0)" stroke-linecap="round" stroke-linejoin="round" stroke-opacity="1.0" stroke-width="3.0"/>
    <path d="M 134.10076904296875 167.09336853027344 C 152.19842529296875 138.89378356933594 103.14786529541016 136.0170440673828 147.63543701171875 203.14361572265625" fill="none" stroke="rgb(0, 0, 0)" stroke-linecap="round" stroke-linejoin="round" stroke-opacity="1.0" stroke-width="3.0"/>
    <path d="M 218.2933349609375 146.74021911621094 C 193.5391845703125 153.42372131347656 81.63201904296875 152.7719268798828 229.653564453125 142.36111450195312" fill="none" stroke="rgb(0, 0, 0)" stroke-linecap="round" stroke-linejoin="round" stroke-opacity="1.0" stroke-width="3.0"/>
    <path d="M 136.52255249023438 161.16806030273438 C 130.43359375 121.39945220947266 127.43211364746094 144.7764892578125 134.36453247070312 189.98973083496094" fill="none" stroke="rgb(0, 0, 0)" stroke-linecap="round" stroke-linejoin="round" stroke-opacity="1.0" stroke-width="3.0"/>
    <path d="M 144.8117218017578 162.15655517578125 C 153.31674194335938 201.86448669433594 112.69721984863281 194.969970703125 131.10150146484375 129.87147521972656" fill="none" stroke="rgb(0, 0, 0)" stroke-linecap="round" stroke-linejoin="round" stroke-opacity="1.0" stroke-width="3.0"/>
    <path d="M 145.9219207763672 148.04971313476562 C 170.525146484375 123.62496948242188 245.60775756835938 129.27113342285156 151.70822143554688 142.30215454101562" fill="none" stroke="rgb(0, 0, 0)" stroke-linecap="round" stroke-linejoin="round" stroke-opacity="1.0" stroke-width="3.0"/>
    <path d="M 147.1059112548828 196.86863708496094 C 143.5335235595703 132.5155487060547 158.91860961914062 240.17166137695312 155.78228759765625 149.61268615722656" fill="none" stroke="rgb(0, 0, 0)" stroke-linecap="round" stroke-linejoin="round" stroke-opacity="1.0" stroke-width="3.0"/>
    <path d="M 153.583740234375 201.11819458007812 C 137.58126831054688 130.84425354003906 143.6297149658203 243.31951904296875 150.5999755859375 235.25692749023438" fill="none" stroke="rgb(0, 0, 0)" stroke-linecap="round" stroke-linejoin="round" stroke-opacity="1.0" stroke-width="3.0"/>
    <path d="M 143.2699432373047 132.57382202148438 C 166.99722290039062 180.33274841308594 151.27316284179688 125.95304107666016 169.75331115722656 156.56216430664062" fill="none" stroke="rgb(0, 0, 0)" stroke-linecap="round" stroke-linejoin="round" stroke-opacity="1.0" stroke-width="3.0"/>
    <path d="M 161.44082641601562 170.95257568359375 C 190.8563690185547 131.7638702392578 123.31782531738281 195.50355529785156 204.90618896484375 154.6630859375" fill="none" stroke="rgb(0, 0, 0)" stroke-linecap="round" stroke-linejoin="round" stroke-opacity="1.0" stroke-width="3.0"/>
    <path d="M 128.2163848876953 172.16839599609375 C 149.3980712890625 186.4195556640625 106.61625671386719 103.33387756347656 142.69619750976562 128.924560546875" fill="none" stroke="rgb(0, 0, 0)" stroke-linecap="round" stroke-linejoin="round" stroke-opacity="1.0" stroke-width="3.0"/>
    <path d="M 157.87745666503906 167.36727905273438 C 205.5686798095703 190.45640563964844 98.90107727050781 119.77861785888672 177.7399139404297 166.27291870117188" fill="none" stroke="rgb(0, 0, 0)" stroke-linecap="round" stroke-linejoin="round" stroke-opacity="1.0" stroke-width="3.0"/>
    <path d="M 142.74249267578125 167.93894958496094 C 168.26295471191406 200.2022705078125 147.97613525390625 175.10975646972656 151.0344696044922 235.52322387695312" fill="none" stroke="rgb(0, 0, 0)" stroke-linecap="round" stroke-linejoin="round" stroke-opacity="1.0" stroke-width="3.0"/>
    <path d="M 120.18190002441406 116.73741149902344 C 154.67373657226562 158.04190063476562 131.172607421875 107.42445373535156 126.39387512207031 130.24102783203125" fill="none" stroke="rgb(0, 0, 0)" stroke-linecap="round" stroke-linejoin="round" stroke-opacity="1.0" stroke-width="3.0"/>
    <path d="M 143.70050048828125 130.2847442626953 C 153.5889434814453 163.54481506347656 153.81837463378906 128.78466796875 129.5254669189453 137.97348022460938" fill="none" stroke="rgb(0, 0, 0)" stroke-linecap="round" stroke-linejoin="round" stroke-opacity="1.0" stroke-width="3.0"/>
  </g>
</svg>
