<?xml version="1.0" ?>
<svg height="256" version="1.1" width="256" xmlns="http://www.w3.org/2000/svg">
  <defs/>
  <g>
    <path d="M 138.20257568359375 137.34584045410156 C 165.95872497558594 121.17559814453125 147.52650451660156 96.78196716308594 200.30650329589844 111.24551391601562" fill="none" stroke="rgb(0, 0, 0)" stroke-linecap="round" stroke-linejoin="round" stroke-opacity="1.0" stroke-width="3.0"/>
    <path d="M 120.34210968017578 197.19309997558594 C 119.26343536376953 170.88766479492188 156.72647094726562 145.25106811523438 155.65147399902344 100.51872253417969" fill="none" stroke="rgb(0, 0, 0)" stroke-linecap="round" stroke-linejoin="round" stroke-opacity="1.0" stroke-width="3.0"/>
    <path d="M 149.6061248779297 132.2391357421875 C 117.34548950195312 175.15472412109375 168.26779174804688 80.63707733154297 139.30990600585938 148.4158172607422" fill="none" stroke="rgb(0, 0, 0)" stroke-linecap="round" stroke-linejoin="round" stroke-opacity="1.0" stroke-width="3.0"/>
    <path d="M 135.86155700683594 161.444091796875 C 178.92425537109375 105.61186218261719 124.40724182128906 88.62368774414062 153.1892547607422 118.51315307617188" fill="none" stroke="rgb(0, 0, 0)" stroke-linecap="round" stroke-linejoin="round" stroke-opacity="1.0" stroke-width="3.0"/>
    <path d="M 157.38478088378906 100.80532836914062 C 164.48292541503906 113.17781066894531 124.98220825195312 91.58822631835938 172.65260314941406 106.58599853515625" fill="none" stroke="rgb(0, 0, 0)" stroke-linecap="round" stroke-linejoin="round" stroke-opacity="1.0" stroke-width="3.0"/>
    <path d="M 109.81757354736328 135.71432495117188 C 126.3676986694336 116.70172119140625 102.38377380371094 151.0556182861328 99.47107696533203 93.42715454101562" fill="none" stroke="rgb(0, 0, 0)" stroke-linecap="round" stroke-linejoin="round" stroke-opacity="1.0" stroke-width="3.0"/>
    <path d="M 96.67691040039062 131.42799377441406 C 121.1242904663086 118.24999237060547 124.857177734375 131.46591186523438 74.38551330566406 124.94586181640625" fill="none" stroke="rgb(0, 0, 0)" stroke-linecap="round" stroke-linejoin="round" stroke-opacity="1.0" stroke-width="3.0"/>
    <path d="M 123.2548828125 210.49436950683594 C 123.87718200683594 124.54936218261719 147.30389404296875 224.8184814453125 127.64698791503906 178.45343017578125" fill="none" stroke="rgb(0, 0, 0)" stroke-linecap="round" stroke-linejoin="round" stroke-opacity="1.0" stroke-width="3.0"/>
    <path d="M 118.94816589355469 128.7904815673828 C 88.69387817382812 183.37362670898438 107.55272674560547 195.29653930664062 99.2947998046875 212.74725341796875" fill="none" stroke="rgb(0, 0, 0)" stroke-linecap="round" stroke-linejoin="round" stroke-opacity="1.0" stroke-width="3.0"/>
    <path d="M 141.57489013671875 101.83971405029297 C 113.29313659667969 161.941162109375 129.4155731201172 116.64106750488281 104.30253601074219 90.57884216308594" fill="none" stroke="rgb(0, 0, 0)" stroke-linecap="round" stroke-linejoin="round" stroke-opacity="1.0" stroke-width="3.0"/>
    <path d="M 125.35089874267578 134.41603088378906 C 136.60614013671875 157.43453979492188 84.15542602539062 161.84312438964844 128.90513610839844 191.3814697265625" fill="none" stroke="rgb(0, 0, 0)" stroke-linecap="round" stroke-linejoin="round" stroke-opacity="1.0" stroke-width="3.0"/>
    <path d="M 138.23916625976562 120.69178009033203 C 124.64906311035156 77.07548522949219 198.88804626464844 109.39026641845703 143.53121948242188 115.22116088867188" fill="none" stroke="rgb(0, 0, 0)" stroke-linecap="round" stroke-linejoin="round" stroke-opacity="1.0" stroke-width="3.0"/>
    <path d="M 162.6207733154297 108.295654296875 C 124.7681884765625 98.14378356933594 137.31649780273438 116.95095825195312 159.3087158203125 103.36582946777344" fill="none" stroke="rgb(0, 0, 0)" stroke-linecap="round" stroke-linejoin="round" stroke-opacity="1.0" stroke-width="3.0"/>
    <path d="M 107.18114471435547 172.44491577148438 C 134.13092041015625 233.17921447753906 112.8448486328125 250.19256591796875 102.84229278564453 176.04713439941406" fill="none" stroke="rgb(0, 0, 0)" stroke-linecap="round" stroke-linejoin="round" stroke-opacity="1.0" stroke-width="3.0"/>
    <path d="M 119.25887298583984 128.23313903808594 C -23.42969512939453 94.01666259765625 38.59703063964844 93.26927185058594 117.13575744628906 126.31214904785156" fill="none" stroke="rgb(0, 0, 0)" stroke-linecap="round" stroke-linejoin="round" stroke-opacity="1.0" stroke-width="3.0"/>
    <path d="M 33.69435119628906 102.09143829345703 C 65.17149353027344 130.83119201660156 54.837013244628906 103.4102783203125 108.33671569824219 150.39730834960938" fill="none" stroke="rgb(0, 0, 0)" stroke-linecap="round" stroke-linejoin="round" stroke-opacity="1.0" stroke-width="3.0"/>
  </g>
</svg>
