<?xml version="1.0" ?>
<svg height="256" version="1.1" width="256" xmlns="http://www.w3.org/2000/svg">
  <defs/>
  <g>
    <path d="M 176.59817504882812 122.34406280517578 C 186.89349365234375 83.03315734863281 207.0159149169922 116.03211975097656 183.78746032714844 101.17630767822266" fill="none" stroke="rgb(0, 0, 0)" stroke-linecap="round" stroke-linejoin="round" stroke-opacity="1.0" stroke-width="3.0"/>
    <path d="M 100.68749237060547 83.42416381835938 C 158.93032836914062 114.82755279541016 151.6165313720703 132.41807556152344 97.77790069580078 108.29058837890625" fill="none" stroke="rgb(0, 0, 0)" stroke-linecap="round" stroke-linejoin="round" stroke-opacity="1.0" stroke-width="3.0"/>
    <path d="M 112.05570983886719 106.46160888671875 C 68.25325012207031 140.43067932128906 129.2447967529297 48.13297653198242 116.66070556640625 95.01860046386719" fill="none" stroke="rgb(0, 0, 0)" stroke-linecap="round" stroke-linejoin="round" stroke-opacity="1.0" stroke-width="3.0"/>
    <path d="M 135.02606201171875 79.9612045288086 C 87.2435073852539 128.71051025390625 202.7168426513672 85.66206359863281 181.6159210205078 183.04019165039062" fill="none" stroke="rgb(0, 0, 0)" stroke-linecap="round" stroke-linejoin="round" stroke-opacity="1.0" stroke-width="3.0"/>
    <path d="M 231.39126586914062 143.8058319091797 C 199.99331665039062 157.72982788085938 191.5013427734375 59.237483978271484 180.38363647460938 126.12171936035156" fill="none" stroke="rgb(0, 0, 0)" stroke-linecap="round" stroke-linejoin="round" stroke-opacity="1.0" stroke-width="3.0"/>
    <path d="M 187.8802032470703 87.18675231933594 C 179.16470336914062 68.55653381347656 182.5664520263672 65.80854797363281 196.8752899169922 93.37110900878906" fill="none" stroke="rgb(0, 0, 0)" stroke-linecap="round" stroke-linejoin="round" stroke-opacity="1.0" stroke-width="3.0"/>
    <path d="M 173.40362548828125 120.62902069091797 C 155.84996032714844 84.200927734375 161.609619140625 107.35948944091797 164.03753662109375 87.94847106933594" fill="none" stroke="rgb(0, 0, 0)" stroke-linecap="round" stroke-linejoin="round" stroke-opacity="1.0" stroke-width="3.0"/>
    <path d="M 186.16018676757812 153.60623168945312 C 144.05259704589844 97.47074127197266 170.74212646484375 88.11271667480469 188.20388793945312 149.6079559326172" fill="none" stroke="rgb(0, 0, 0)" stroke-linecap="round" stroke-linejoin="round" stroke-opacity="1.0" stroke-width="3.0"/>
    <path d="M 239.86288452148438 133.59982299804688 C 230.99197387695312 147.58973693847656 225.55136108398438 143.2148895263672 237.2284698486328 136.88986206054688" fill="none" stroke="rgb(0, 0, 0)" stroke-linecap="round" stroke-linejoin="round" stroke-opacity="1.0" stroke-width="3.0"/>
    <path d="M 166.5012664794922 112.36683654785156 C 158.0325927734375 126.43579864501953 136.45095825195312 93.18329620361328 181.2224578857422 152.1063232421875" fill="none" stroke="rgb(0, 0, 0)" stroke-linecap="round" stroke-linejoin="round" stroke-opacity="1.0" stroke-width="3.0"/>
    <path d="M 117.15696716308594 138.25350952148438 C 115.46930694580078 95.19911193847656 150.17681884765625 110.89851379394531 126.55439758300781 139.85972595214844" fill="none" stroke="rgb(0, 0, 0)" stroke-linecap="round" stroke-linejoin="round" stroke-opacity="1.0" stroke-width="3.0"/>
    <path d="M 105.16075134277344 102.74151611328125 C 108.67898559570312 62.179420471191406 120.63136291503906 129.6018524169922 96.88325500488281 77.57245635986328" fill="none" stroke="rgb(0, 0, 0)" stroke-linecap="round" stroke-linejoin="round" stroke-opacity="1.0" stroke-width="3.0"/>
    <path d="M 116.17316436767578 115.3836669921875 C 188.54995727539062 111.22655487060547 220.0855712890625 102.20943450927734 117.55453491210938 118.02206420898438" fill="none" stroke="rgb(0, 0, 0)" stroke-linecap="round" stroke-linejoin="round" stroke-opacity="1.0" stroke-width="3.0"/>
    <path d="M 175.87742614746094 111.5078353881836 C 193.25791931152344 173.01101684570312 201.88931274414062 124.39300537109375 176.19937133789062 180.64767456054688" fill="none" stroke="rgb(0, 0, 0)" stroke-linecap="round" stroke-linejoin="round" stroke-opacity="1.0" stroke-width="3.0"/>
    <path d="M 182.24009704589844 90.0091781616211 C 200.7791748046875 73.54734802246094 205.91331481933594 152.94284057617188 232.20541381835938 140.15017700195312" fill="none" stroke="rgb(0, 0, 0)" stroke-linecap="round" stroke-linejoin="round" stroke-opacity="1.0" stroke-width="3.0"/>
    <path d="M 135.96981811523438 80.32928466796875 C 185.6031494140625 32.10967254638672 217.70233154296875 132.7287139892578 180.66705322265625 80.79447937011719" fill="none" stroke="rgb(0, 0, 0)" stroke-linecap="round" stroke-linejoin="round" stroke-opacity="1.0" stroke-width="3.0"/>
  </g>
</svg>
