<?xml version="1.0" ?>
<svg height="256" version="1.1" width="256" xmlns="http://www.w3.org/2000/svg">
  <defs/>
  <g>
    <path d="M 139.18165588378906 80.6370849609375 C 188.86048889160156 147.42491149902344 151.99014282226562 17.85144805908203 190.21043395996094 107.90469360351562" fill="none" stroke="rgb(0, 0, 0)" stroke-linecap="round" stroke-linejoin="round" stroke-opacity="1.0" stroke-width="3.0"/>
    <path d="M 177.19012451171875 177.75047302246094 C 97.16285705566406 154.98667907714844 184.57809448242188 181.9730224609375 176.3272247314453 43.35856628417969" fill="none" stroke="rgb(0, 0, 0)" stroke-linecap="round" stroke-linejoin="round" stroke-opacity="1.0" stroke-width="3.0"/>
    <path d="M 104.49494934082031 127.33138275146484 C 147.0570831298828 161.3121795654297 67.31732940673828 124.44139862060547 139.90826416015625 139.33212280273438" fill="none" stroke="rgb(0, 0, 0)" stroke-linecap="round" stroke-linejoin="round" stroke-opacity="1.0" stroke-width="3.0"/>
    <path d="M 166.95635986328125 77.04136657714844 C 167.9322509765625 -16.641082763671875 208.751708984375 136.9508819580078 141.67861938476562 168.7977294921875" fill="none" stroke="rgb(0, 0, 0)" stroke-linecap="round" stroke-linejoin="round" stroke-opacity="1.0" stroke-width="3.0"/>
    <path d="M 112.00582885742188 126.03662872314453 C 135.29180908203125 191.43603515625 160.09890747070312 92.10186767578125 173.6090850830078 72.30026245117188" fill="none" stroke="rgb(0, 0, 0)" stroke-linecap="round" stroke-linejoin="round" stroke-opacity="1.0" stroke-width="3.0"/>
    <path d="M 166.78228759765625 88.9276123046875 C 106.08778381347656 214.7994384765625 159.06436157226562 120.12889862060547 100.62504577636719 142.29510498046875" fill="none" stroke="rgb(0, 0, 0)" stroke-linecap="round" stroke-linejoin="round" stroke-opacity="1.0" stroke-width="3.0"/>
    <path d="M 185.75906372070312 105.60597229003906 C 150.80154418945312 -1.7219085693359375 207.04808044433594 86.70475006103516 149.79798889160156 166.20401000976562" fill="none" stroke="rgb(0, 0, 0)" stroke-linecap="round" stroke-linejoin="round" stroke-opacity="1.0" stroke-width="3.0"/>
    <path d="M 184.796875 185.211181640625 C 142.10250854492188 202.2545166015625 190.81082153320312 143.29168701171875 163.3084716796875 200.06130981445312" fill="none" stroke="rgb(0, 0, 0)" stroke-linecap="round" stroke-linejoin="round" stroke-opacity="1.0" stroke-width="3.0"/>
    <path d="M 26.111351013183594 228.61837768554688 C 51.45603942871094 210.33883666992188 105.37246704101562 278.261474609375 132.2366180419922 176.4390869140625" fill="none" stroke="rgb(0, 0, 0)" stroke-linecap="round" stroke-linejoin="round" stroke-opacity="1.0" stroke-width="3.0"/>
    <path d="M 166.86322021484375 57.257179260253906 C 182.68035888671875 112.07644653320312 146.53350830078125 91.58938598632812 122.14665985107422 201.40512084960938" fill="none" stroke="rgb(0, 0, 0)" stroke-linecap="round" stroke-linejoin="round" stroke-opacity="1.0" stroke-width="3.0"/>
    <path d="M 144.75572204589844 177.01487731933594 C 158.63719177246094 165.7890625 163.17837524414062 179.74093627929688 180.13140869140625 194.85586547851562" fill="none" stroke="rgb(0, 0, 0)" stroke-linecap="round" stroke-linejoin="round" stroke-opacity="1.0" stroke-width="3.0"/>
    <path d="M 138.31788635253906 147.49102783203125 C 166.1746368408203 115.45919799804688 166.49427795410156 77.66853332519531 137.093994140625 89.29942321777344" fill="none" stroke="rgb(0, 0, 0)" stroke-linecap="round" stroke-linejoin="round" stroke-opacity="1.0" stroke-width="3.0"/>
    <path d="M 173.32992553710938 185.15243530273438 C 189.18728637695312 145.87570190429688 99.50457763671875 207.60614013671875 203.9990997314453 83.87306213378906" fill="none" stroke="rgb(0, 0, 0)" stroke-linecap="round" stroke-linejoin="round" stroke-opacity="1.0" stroke-width="3.0"/>
    <path d="M 156.88784790039062 148.35508728027344 C 139.65870666503906 143.74143981933594 149.14590454101562 234.58499145507812 87.68543243408203 238.9971923828125" fill="none" stroke="rgb(0, 0, 0)" stroke-linecap="round" stroke-linejoin="round" stroke-opacity="1.0" stroke-width="3.0"/>
    <path d="M 165.920654296875 76.3587646484375 C 158.66441345214844 67.24276733398438 190.68563842773438 -25.49713134765625 179.83717346191406 115.97206115722656" fill="none" stroke="rgb(0, 0, 0)" stroke-linecap="round" stroke-linejoin="round" stroke-opacity="1.0" stroke-width="3.0"/>
    <path d="M 177.63226318359375 43.15973663330078 C 206.73162841796875 56.531166076660156 154.46633911132812 108.98970031738281 213.47593688964844 91.2340087890625" fill="none" stroke="rgb(0, 0, 0)" stroke-linecap="round" stroke-linejoin="round" stroke-opacity="1.0" stroke-width="3.0"/>
  </g>
</svg>
