<?xml version="1.0" ?>
<svg height="256" version="1.1" width="256" xmlns="http://www.w3.org/2000/svg">
  <defs/>
  <g>
    <path d="M 112.77422332763672 145.02024841308594 C 120.93402099609375 107.80799865722656 107.1612319946289 120.89729309082031 111.37565612792969 107.63387298583984" fill="none" stroke="rgb(0, 0, 0)" stroke-linecap="round" stroke-linejoin="round" stroke-opacity="1.0" stroke-width="3.0"/>
    <path d="M 91.01134490966797 82.46817016601562 C 52.617122650146484 77.83110046386719 78.69792175292969 93.9548110961914 72.64546203613281 73.20896911621094" fill="none" stroke="rgb(0, 0, 0)" stroke-linecap="round" stroke-linejoin="round" stroke-opacity="1.0" stroke-width="3.0"/>
    <path d="M 72.23342895507812 199.39222717285156 C 131.60333251953125 196.98312377929688 56.19248580932617 220.15164184570312 77.69561004638672 186.77088928222656" fill="none" stroke="rgb(0, 0, 0)" stroke-linecap="round" stroke-linejoin="round" stroke-opacity="1.0" stroke-width="3.0"/>
    <path d="M 110.18470001220703 97.54132843017578 C 130.29415893554688 100.86881256103516 140.16162109375 133.78466796875 136.15792846679688 106.0507583618164" fill="none" stroke="rgb(0, 0, 0)" stroke-linecap="round" stroke-linejoin="round" stroke-opacity="1.0" stroke-width="3.0"/>
    <path d="M 86.3528823852539 189.82342529296875 C 114.58966064453125 233.66921997070312 42.776512145996094 172.3823699951172 128.68516540527344 188.48348999023438" fill="none" stroke="rgb(0, 0, 0)" stroke-linecap="round" stroke-linejoin="round" stroke-opacity="1.0" stroke-width="3.0"/>
    <path d="M 101.89043426513672 77.07925415039062 C 60.63254165649414 86.05958557128906 80.8990249633789 85.1640853881836 69.16976928710938 91.44471740722656" fill="none" stroke="rgb(0, 0, 0)" stroke-linecap="round" stroke-linejoin="round" stroke-opacity="1.0" stroke-width="3.0"/>
    <path d="M 65.30764770507812 111.19560241699219 C 68.25862121582031 34.101524353027344 108.97447204589844 69.56144714355469 102.27906799316406 88.30522155761719" fill="none" stroke="rgb(0, 0, 0)" stroke-linecap="round" stroke-linejoin="round" stroke-opacity="1.0" stroke-width="3.0"/>
    <path d="M 100.60505676269531 82.57058715820312 C 92.78292083740234 97.18775939941406 121.97496032714844 87.73910522460938 114.66206359863281 164.70089721679688" fill="none" stroke="rgb(0, 0, 0)" stroke-linecap="round" stroke-linejoin="round" stroke-opacity="1.0" stroke-width="3.0"/>
    <path d="M 19.479660034179688 146.52442932128906 C 101.60375213623047 73.40977478027344 48.04751968383789 87.43270111083984 88.95729064941406 89.71139526367188" fill="none" stroke="rgb(0, 0, 0)" stroke-linecap="round" stroke-linejoin="round" stroke-opacity="1.0" stroke-width="3.0"/>
    <path d="M 115.46728515625 124.87351989746094 C 129.04623413085938 172.68276977539062 96.11674499511719 183.44305419921875 118.7215576171875 191.85768127441406" fill="none" stroke="rgb(0, 0, 0)" stroke-linecap="round" stroke-linejoin="round" stroke-opacity="1.0" stroke-width="3.0"/>
    <path d="M 84.97034454345703 64.08094787597656 C 91.36910247802734 101.2477035522461 90.4098892211914 76.742919921875 67.71389770507812 92.55807495117188" fill="none" stroke="rgb(0, 0, 0)" stroke-linecap="round" stroke-linejoin="round" stroke-opacity="1.0" stroke-width="3.0"/>
    <path d="M 87.24180603027344 204.69757080078125 C 42.735877990722656 133.08750915527344 88.03771209716797 88.81525421142578 51.41101837158203 116.08047485351562" fill="none" stroke="rgb(0, 0, 0)" stroke-linecap="round" stroke-linejoin="round" stroke-opacity="1.0" stroke-width="3.0"/>
    <path d="M 100.48146057128906 82.64276123046875 C 87.395263671875 99.75070190429688 135.8397979736328 83.50259399414062 135.54843139648438 115.67557525634766" fill="none" stroke="rgb(0, 0, 0)" stroke-linecap="round" stroke-linejoin="round" stroke-opacity="1.0" stroke-width="3.0"/>
    <path d="M 71.71511840820312 80.18115234375 C 153.10501098632812 62.19663619995117 32.09879684448242 96.47117614746094 88.34356689453125 85.0174789428711" fill="none" stroke="rgb(0, 0, 0)" stroke-linecap="round" stroke-linejoin="round" stroke-opacity="1.0" stroke-width="3.0"/>
    <path d="M 79.49791717529297 201.23519897460938 C 73.17912292480469 167.04095458984375 75.77890014648438 211.27236938476562 101.61785888671875 205.3207244873047" fill="none" stroke="rgb(0, 0, 0)" stroke-linecap="round" stroke-linejoin="round" stroke-opacity="1.0" stroke-width="3.0"/>
    <path d="M 109.73284149169922 70.42556762695312 C 76.75596618652344 66.10209655761719 67.95087432861328 75.24165344238281 107.12291717529297 72.68075561523438" fill="none" stroke="rgb(0, 0, 0)" stroke-linecap="round" stroke-linejoin="round" stroke-opacity="1.0" stroke-width="3.0"/>
  </g>
</svg>
