<?xml version="1.0" ?>
<svg height="256" version="1.1" width="256" xmlns="http://www.w3.org/2000/svg">
  <defs/>
  <g>
    <path d="M 153.5710906982422 122.35346984863281 C 192.8055419921875 175.1572265625 149.17156982421875 163.70579528808594 151.92510986328125 88.58363342285156" fill="none" stroke="rgb(0, 0, 0)" stroke-linecap="round" stroke-linejoin="round" stroke-opacity="1.0" stroke-width="3.0"/>
    <path d="M 155.54067993164062 125.81999969482422 C 130.92926025390625 111.90765380859375 142.6182403564453 75.04129028320312 148.29898071289062 139.70925903320312" fill="none" stroke="rgb(0, 0, 0)" stroke-linecap="round" stroke-linejoin="round" stroke-opacity="1.0" stroke-width="3.0"/>
    <path d="M 131.9840850830078 177.03594970703125 C 154.01544189453125 195.5029296875 119.86106872558594 180.63841247558594 131.3822784423828 180.87217712402344" fill="none" stroke="rgb(0, 0, 0)" stroke-linecap="round" stroke-linejoin="round" stroke-opacity="1.0" stroke-width="3.0"/>
    <path d="M 144.1138916015625 139.15533447265625 C 150.15101623535156 86.94786071777344 149.92678833007812 53.67274475097656 149.9297637939453 141.70947265625" fill="none" stroke="rgb(0, 0, 0)" stroke-linecap="round" stroke-linejoin="round" stroke-opacity="1.0" stroke-width="3.0"/>
    <path d="M 124.86857604980469 152.38047790527344 C 142.5916748046875 192.62684631347656 138.63697814941406 190.82568359375 124.67350769042969 184.58477783203125" fill="none" stroke="rgb(0, 0, 0)" stroke-linecap="round" stroke-linejoin="round" stroke-opacity="1.0" stroke-width="3.0"/>
    <path d="M 140.4705047607422 92.37858581542969 C 166.80397033691406 127.76473236083984 96.4100341796875 110.15780639648438 125.60333251953125 111.79981231689453" fill="none" stroke="rgb(0, 0, 0)" stroke-linecap="round" stroke-linejoin="round" stroke-opacity="1.0" stroke-width="3.0"/>
    <path d="M 141.60629272460938 92.85078430175781 C 133.85755920410156 54.72904968261719 157.51031494140625 97.53801727294922 138.56956481933594 76.64492797851562" fill="none" stroke="rgb(0, 0, 0)" stroke-linecap="round" stroke-linejoin="round" stroke-opacity="1.0" stroke-width="3.0"/>
    <path d="M 144.7064971923828 89.01829528808594 C 157.91629028320312 169.06591796875 155.6898193359375 155.98342895507812 149.32742309570312 87.89628601074219" fill="none" stroke="rgb(0, 0, 0)" stroke-linecap="round" stroke-linejoin="round" stroke-opacity="1.0" stroke-width="3.0"/>
    <path d="M 156.62388610839844 145.6268768310547 C 141.13624572753906 78.60997009277344 183.63473510742188 83.59637451171875 157.0963592529297 135.83282470703125" fill="none" stroke="rgb(0, 0, 0)" stroke-linecap="round" stroke-linejoin="round" stroke-opacity="1.0" stroke-width="3.0"/>
    <path d="M 201.8868865966797 189.65879821777344 C 186.67819213867188 149.64987182617188 125.32708740234375 137.74172973632812 204.668701171875 183.6155242919922" fill="none" stroke="rgb(0, 0, 0)" stroke-linecap="round" stroke-linejoin="round" stroke-opacity="1.0" stroke-width="3.0"/>
    <path d="M 152.74363708496094 109.81938171386719 C 129.82630920410156 85.59119415283203 128.17469787597656 104.75103759765625 167.0859375 153.85609436035156" fill="none" stroke="rgb(0, 0, 0)" stroke-linecap="round" stroke-linejoin="round" stroke-opacity="1.0" stroke-width="3.0"/>
    <path d="M 191.2994842529297 175.39012145996094 C 144.2581787109375 139.6061248779297 143.9104461669922 127.776123046875 124.90242004394531 149.74156188964844" fill="none" stroke="rgb(0, 0, 0)" stroke-linecap="round" stroke-linejoin="round" stroke-opacity="1.0" stroke-width="3.0"/>
    <path d="M 131.67210388183594 142.2924041748047 C 132.0769500732422 133.09933471679688 161.8714599609375 139.00730895996094 170.1842498779297 99.81454467773438" fill="none" stroke="rgb(0, 0, 0)" stroke-linecap="round" stroke-linejoin="round" stroke-opacity="1.0" stroke-width="3.0"/>
    <path d="M 167.75164794921875 98.47913360595703 C 125.90966796875 66.08280944824219 137.55763244628906 121.27239990234375 129.35565185546875 107.73721313476562" fill="none" stroke="rgb(0, 0, 0)" stroke-linecap="round" stroke-linejoin="round" stroke-opacity="1.0" stroke-width="3.0"/>
    <path d="M 157.94578552246094 99.47564697265625 C 154.7140655517578 164.39138793945312 184.61166381835938 155.37820434570312 191.81251525878906 173.3863983154297" fill="none" stroke="rgb(0, 0, 0)" stroke-linecap="round" stroke-linejoin="round" stroke-opacity="1.0" stroke-width="3.0"/>
    <path d="M 169.41493225097656 98.12068176269531 C 140.6995391845703 108.36210632324219 126.37124633789062 62.97770690917969 146.53567504882812 74.36895751953125" fill="none" stroke="rgb(0, 0, 0)" stroke-linecap="round" stroke-linejoin="round" stroke-opacity="1.0" stroke-width="3.0"/>
  </g>
</svg>
