<?xml version="1.0" ?>
<svg height="256" version="1.1" width="256" xmlns="http://www.w3.org/2000/svg">
  <defs/>
  <g>
    <path d="M 150.83917236328125 95.58808135986328 C 147.60862731933594 185.68789672851562 170.7270050048828 29.73479461669922 128.45481872558594 57.27781677246094" fill="none" stroke="rgb(0, 0, 0)" stroke-linecap="round" stroke-linejoin="round" stroke-opacity="1.0" stroke-width="3.0"/>
    <path d="M 153.23260498046875 149.8292999267578 C 152.85662841796875 108.17289733886719 174.85986328125 158.55783081054688 143.62838745117188 82.01985168457031" fill="none" stroke="rgb(0, 0, 0)" stroke-linecap="round" stroke-linejoin="round" stroke-opacity="1.0" stroke-width="3.0"/>
    <path d="M 128.03358459472656 133.83169555664062 C 138.9260711669922 46.96765899658203 129.66058349609375 -10.490318298339844 156.53118896484375 120.85258483886719" fill="none" stroke="rgb(0, 0, 0)" stroke-linecap="round" stroke-linejoin="round" stroke-opacity="1.0" stroke-width="3.0"/>
    <path d="M 142.691650390625 91.9146728515625 C 148.23428344726562 175.20530700683594 72.55126953125 98.48372650146484 156.63232421875 128.37185668945312" fill="none" stroke="rgb(0, 0, 0)" stroke-linecap="round" stroke-linejoin="round" stroke-opacity="1.0" stroke-width="3.0"/>
    <path d="M 146.20201110839844 55.563297271728516 C 130.719482421875 57.32654571533203 166.06922912597656 120.3017349243164 134.73297119140625 145.95216369628906" fill="none" stroke="rgb(0, 0, 0)" stroke-linecap="round" stroke-linejoin="round" stroke-opacity="1.0" stroke-width="3.0"/>
    <path d="M 146.09681701660156 101.21361541748047 C 143.24742126464844 142.4849090576172 166.92774963378906 133.88409423828125 124.6302490234375 123.46928405761719" fill="none" stroke="rgb(0, 0, 0)" stroke-linecap="round" stroke-linejoin="round" stroke-opacity="1.0" stroke-width="3.0"/>
    <path d="M 142.64854431152344 133.55929565429688 C 146.3038330078125 99.91919708251953 148.00808715820312 36.35614013671875 134.68247985839844 38.800537109375" fill="none" stroke="rgb(0, 0, 0)" stroke-linecap="round" stroke-linejoin="round" stroke-opacity="1.0" stroke-width="3.0"/>
    <path d="M 149.66555786132812 139.38156127929688 C 118.1283950805664 137.91778564453125 156.27357482910156 89.4124526977539 155.1804962158203 172.12115478515625" fill="none" stroke="rgb(0, 0, 0)" stroke-linecap="round" stroke-linejoin="round" stroke-opacity="1.0" stroke-width="3.0"/>
    <path d="M 155.70123291015625 172.66458129882812 C 166.36488342285156 228.10015869140625 153.7350616455078 168.55433654785156 155.80140686035156 172.88812255859375" fill="none" stroke="rgb(0, 0, 0)" stroke-linecap="round" stroke-linejoin="round" stroke-opacity="1.0" stroke-width="3.0"/>
    <path d="M 145.28518676757812 63.66730880737305 C 154.8822784423828 66.53520965576172 139.49996948242188 185.35879516601562 143.61351013183594 65.16380310058594" fill="none" stroke="rgb(0, 0, 0)" stroke-linecap="round" stroke-linejoin="round" stroke-opacity="1.0" stroke-width="3.0"/>
    <path d="M 135.6964874267578 207.62680053710938 C 145.43359375 81.35139465332031 143.7683563232422 27.90826416015625 138.1647491455078 115.01436614990234" fill="none" stroke="rgb(0, 0, 0)" stroke-linecap="round" stroke-linejoin="round" stroke-opacity="1.0" stroke-width="3.0"/>
    <path d="M 139.44757080078125 188.09490966796875 C 132.06597900390625 141.14105224609375 102.55609130859375 23.168907165527344 146.0292205810547 47.203529357910156" fill="none" stroke="rgb(0, 0, 0)" stroke-linecap="round" stroke-linejoin="round" stroke-opacity="1.0" stroke-width="3.0"/>
    <path d="M 151.6329345703125 113.66522979736328 C 148.57261657714844 39.701454162597656 148.87132263183594 52.73527526855469 140.43475341796875 47.620033264160156" fill="none" stroke="rgb(0, 0, 0)" stroke-linecap="round" stroke-linejoin="round" stroke-opacity="1.0" stroke-width="3.0"/>
    <path d="M 123.5048828125 94.88714599609375 C 113.70068359375 212.12454223632812 117.62479400634766 171.74343872070312 113.49050903320312 203.39573669433594" fill="none" stroke="rgb(0, 0, 0)" stroke-linecap="round" stroke-linejoin="round" stroke-opacity="1.0" stroke-width="3.0"/>
    <path d="M 139.6574249267578 32.12054443359375 C 158.51780700683594 63.69374465942383 155.42791748046875 90.8589859008789 152.45556640625 94.56906127929688" fill="none" stroke="rgb(0, 0, 0)" stroke-linecap="round" stroke-linejoin="round" stroke-opacity="1.0" stroke-width="3.0"/>
    <path d="M 135.8382110595703 34.891990661621094 C 115.72978210449219 73.12716674804688 143.3006591796875 5.984458923339844 140.02386474609375 45.835472106933594" fill="none" stroke="rgb(0, 0, 0)" stroke-linecap="round" stroke-linejoin="round" stroke-opacity="1.0" stroke-width="3.0"/>
  </g>
</svg>
