<?xml version="1.0" ?>
<svg height="256" version="1.1" width="256" xmlns="http://www.w3.org/2000/svg">
  <defs/>
  <g>
    <path d="M 91.87908935546875 136.94570922851562 C 106.42098999023438 104.35488891601562 94.7260513305664 106.56966400146484 98.77225494384766 107.10526275634766" fill="none" stroke="rgb(0, 0, 0)" stroke-linecap="round" stroke-linejoin="round" stroke-opacity="1.0" stroke-width="3.0"/>
    <path d="M 124.29264068603516 157.74935913085938 C 175.85861206054688 102.90542602539062 115.36337280273438 96.02161407470703 138.96897888183594 136.2576446533203" fill="none" stroke="rgb(0, 0, 0)" stroke-linecap="round" stroke-linejoin="round" stroke-opacity="1.0" stroke-width="3.0"/>
    <path d="M 138.75233459472656 150.19204711914062 C 77.4505844116211 126.02766418457031 160.8251953125 122.33090209960938 117.0980224609375 147.98291015625" fill="none" stroke="rgb(0, 0, 0)" stroke-linecap="round" stroke-linejoin="round" stroke-opacity="1.0" stroke-width="3.0"/>
    <path d="M 162.26898193359375 88.24209594726562 C 145.0703887939453 140.1133270263672 100.97928619384766 157.76951599121094 142.80947875976562 112.031494140625" fill="none" stroke="rgb(0, 0, 0)" stroke-linecap="round" stroke-linejoin="round" stroke-opacity="1.0" stroke-width="3.0"/>
    <path d="M 133.64015197753906 127.2135009765625 C 146.44039916992188 33.44911193847656 120.54444885253906 47.795997619628906 94.4684829711914 106.25820922851562" fill="none" stroke="rgb(0, 0, 0)" stroke-linecap="round" stroke-linejoin="round" stroke-opacity="1.0" stroke-width="3.0"/>
    <path d="M 86.60240173339844 230.01669311523438 C 109.91056823730469 165.84829711914062 125.8678970336914 206.52963256835938 88.6827621459961 132.65281677246094" fill="none" stroke="rgb(0, 0, 0)" stroke-linecap="round" stroke-linejoin="round" stroke-opacity="1.0" stroke-width="3.0"/>
    <path d="M 143.27850341796875 107.71781921386719 C 119.95096588134766 20.630584716796875 188.74740600585938 129.8715362548828 148.26580810546875 65.84957885742188" fill="none" stroke="rgb(0, 0, 0)" stroke-linecap="round" stroke-linejoin="round" stroke-opacity="1.0" stroke-width="3.0"/>
    <path d="M 134.88034057617188 232.28048706054688 C 110.28523254394531 233.35096740722656 163.72268676757812 167.4342498779297 132.30416870117188 157.76919555664062" fill="none" stroke="rgb(0, 0, 0)" stroke-linecap="round" stroke-linejoin="round" stroke-opacity="1.0" stroke-width="3.0"/>
    <path d="M 86.00112915039062 229.48953247070312 C 110.57960510253906 239.22341918945312 58.033447265625 239.3315887451172 117.90595245361328 237.9117431640625" fill="none" stroke="rgb(0, 0, 0)" stroke-linecap="round" stroke-linejoin="round" stroke-opacity="1.0" stroke-width="3.0"/>
    <path d="M 146.75070190429688 53.42950439453125 C 92.08001708984375 86.43768310546875 122.10675048828125 40.313255310058594 94.32391357421875 141.8463592529297" fill="none" stroke="rgb(0, 0, 0)" stroke-linecap="round" stroke-linejoin="round" stroke-opacity="1.0" stroke-width="3.0"/>
    <path d="M 145.10227966308594 115.2723388671875 C 202.16717529296875 60.37348937988281 156.98529052734375 83.272216796875 137.47686767578125 154.666015625" fill="none" stroke="rgb(0, 0, 0)" stroke-linecap="round" stroke-linejoin="round" stroke-opacity="1.0" stroke-width="3.0"/>
    <path d="M 88.88177490234375 137.68643188476562 C 103.25175476074219 98.71015167236328 93.67262268066406 124.07709503173828 109.56752014160156 78.63816833496094" fill="none" stroke="rgb(0, 0, 0)" stroke-linecap="round" stroke-linejoin="round" stroke-opacity="1.0" stroke-width="3.0"/>
    <path d="M 102.51333618164062 125.24673461914062 C 102.57977294921875 83.96983337402344 105.91097259521484 89.92742919921875 86.0196762084961 132.1254425048828" fill="none" stroke="rgb(0, 0, 0)" stroke-linecap="round" stroke-linejoin="round" stroke-opacity="1.0" stroke-width="3.0"/>
    <path d="M 129.734619140625 222.33505249023438 C 164.8170623779297 247.40878295898438 81.0516357421875 213.58607482910156 151.89637756347656 232.88424682617188" fill="none" stroke="rgb(0, 0, 0)" stroke-linecap="round" stroke-linejoin="round" stroke-opacity="1.0" stroke-width="3.0"/>
    <path d="M 142.13426208496094 61.867000579833984 C 124.36004638671875 33.651695251464844 187.9890594482422 32.76588439941406 144.20425415039062 79.06129455566406" fill="none" stroke="rgb(0, 0, 0)" stroke-linecap="round" stroke-linejoin="round" stroke-opacity="1.0" stroke-width="3.0"/>
    <path d="M 155.2342987060547 59.29229736328125 C 181.96533203125 44.32942199707031 91.20999145507812 42.03373718261719 167.04116821289062 55.901466369628906" fill="none" stroke="rgb(0, 0, 0)" stroke-linecap="round" stroke-linejoin="round" stroke-opacity="1.0" stroke-width="3.0"/>
  </g>
</svg>
