<?xml version="1.0" ?>
<svg height="256" version="1.1" width="256" xmlns="http://www.w3.org/2000/svg">
  <defs/>
  <g>
    <path d="M 166.72219848632812 117.97782897949219 C 183.02992248535156 123.17555236816406 151.38673400878906 98.66993713378906 166.87091064453125 122.31895446777344" fill="none" stroke="rgb(0, 0, 0)" stroke-linecap="round" stroke-linejoin="round" stroke-opacity="1.0" stroke-width="3.0"/>
    <path d="M 84.87174224853516 192.02296447753906 C 57.797203063964844 136.53016662597656 54.17877960205078 155.36700439453125 48.894874572753906 95.99815368652344" fill="none" stroke="rgb(0, 0, 0)" stroke-linecap="round" stroke-linejoin="round" stroke-opacity="1.0" stroke-width="3.0"/>
    <path d="M 153.12815856933594 149.72557067871094 C 246.05007934570312 178.70289611816406 129.1072998046875 137.92355346679688 152.29217529296875 112.03923034667969" fill="none" stroke="rgb(0, 0, 0)" stroke-linecap="round" stroke-linejoin="round" stroke-opacity="1.0" stroke-width="3.0"/>
    <path d="M 171.33197021484375 126.86748504638672 C 151.62057495117188 97.68472290039062 201.85122680664062 150.02452087402344 168.74880981445312 133.91807556152344" fill="none" stroke="rgb(0, 0, 0)" stroke-linecap="round" stroke-linejoin="round" stroke-opacity="1.0" stroke-width="3.0"/>
    <path d="M 151.9793701171875 109.56853485107422 C 129.10000610351562 56.1065788269043 233.27291870117188 152.64390563964844 147.72720336914062 137.33322143554688" fill="none" stroke="rgb(0, 0, 0)" stroke-linecap="round" stroke-linejoin="round" stroke-opacity="1.0" stroke-width="3.0"/>
    <path d="M 67.85693359375 18.313697814941406 C 29.898033142089844 49.81397247314453 74.98344421386719 7.75250244140625 46.43688201904297 111.02371978759766" fill="none" stroke="rgb(0, 0, 0)" stroke-linecap="round" stroke-linejoin="round" stroke-opacity="1.0" stroke-width="3.0"/>
    <path d="M 156.61679077148438 150.41372680664062 C 130.62448120117188 170.40029907226562 128.72377014160156 141.9179229736328 110.22517395019531 143.06399536132812" fill="none" stroke="rgb(0, 0, 0)" stroke-linecap="round" stroke-linejoin="round" stroke-opacity="1.0" stroke-width="3.0"/>
    <path d="M 130.39364624023438 159.73291015625 C 129.40936279296875 189.37376403808594 111.88142395019531 183.36746215820312 109.0009536743164 191.73858642578125" fill="none" stroke="rgb(0, 0, 0)" stroke-linecap="round" stroke-linejoin="round" stroke-opacity="1.0" stroke-width="3.0"/>
    <path d="M 113.28347778320312 186.87318420410156 C 99.09246063232422 182.89730834960938 69.81578063964844 230.379638671875 79.183837890625 160.78912353515625" fill="none" stroke="rgb(0, 0, 0)" stroke-linecap="round" stroke-linejoin="round" stroke-opacity="1.0" stroke-width="3.0"/>
    <path d="M 155.35894775390625 89.23645782470703 C 160.27024841308594 104.39625549316406 165.15121459960938 115.08438873291016 163.5401611328125 90.76714324951172" fill="none" stroke="rgb(0, 0, 0)" stroke-linecap="round" stroke-linejoin="round" stroke-opacity="1.0" stroke-width="3.0"/>
    <path d="M 111.71022033691406 135.16253662109375 C 143.561279296875 153.95208740234375 97.69853973388672 158.81671142578125 180.81434631347656 150.26731872558594" fill="none" stroke="rgb(0, 0, 0)" stroke-linecap="round" stroke-linejoin="round" stroke-opacity="1.0" stroke-width="3.0"/>
    <path d="M 151.78782653808594 96.12037658691406 C 156.92864990234375 100.03783416748047 158.7609405517578 59.29026412963867 165.08926391601562 102.26850128173828" fill="none" stroke="rgb(0, 0, 0)" stroke-linecap="round" stroke-linejoin="round" stroke-opacity="1.0" stroke-width="3.0"/>
    <path d="M 81.716552734375 163.36575317382812 C 58.16728210449219 101.1884765625 180.99794006347656 61.916893005371094 149.5263214111328 130.21994018554688" fill="none" stroke="rgb(0, 0, 0)" stroke-linecap="round" stroke-linejoin="round" stroke-opacity="1.0" stroke-width="3.0"/>
    <path d="M 169.614990234375 169.90664672851562 C 217.57855224609375 153.99147033691406 133.5662841796875 193.47525024414062 183.52645874023438 149.1754608154297" fill="none" stroke="rgb(0, 0, 0)" stroke-linecap="round" stroke-linejoin="round" stroke-opacity="1.0" stroke-width="3.0"/>
    <path d="M 106.97212219238281 30.39911651611328 C 107.92817687988281 32.68889617919922 123.32901763916016 32.27973175048828 128.70648193359375 52.361412048339844" fill="none" stroke="rgb(0, 0, 0)" stroke-linecap="round" stroke-linejoin="round" stroke-opacity="1.0" stroke-width="3.0"/>
    <path d="M 67.64232635498047 19.49152374267578 C 95.20238494873047 -2.9569854736328125 160.00628662109375 72.8664321899414 112.00102996826172 100.11555480957031" fill="none" stroke="rgb(0, 0, 0)" stroke-linecap="round" stroke-linejoin="round" stroke-opacity="1.0" stroke-width="3.0"/>
  </g>
</svg>
