<?xml version="1.0" ?>
<svg height="256" version="1.1" width="256" xmlns="http://www.w3.org/2000/svg">
  <defs/>
  <g>
    <path d="M 173.702392578125 129.37054443359375 C 244.53561401367188 158.50332641601562 191.21180725097656 152.60107421875 188.0470428466797 143.7449951171875" fill="none" stroke="rgb(0, 0, 0)" stroke-linecap="round" stroke-linejoin="round" stroke-opacity="1.0" stroke-width="3.0"/>
    <path d="M 152.04583740234375 187.04232788085938 C 172.54290771484375 154.94970703125 125.2210693359375 171.02078247070312 202.58807373046875 143.1074676513672" fill="none" stroke="rgb(0, 0, 0)" stroke-linecap="round" stroke-linejoin="round" stroke-opacity="1.0" stroke-width="3.0"/>
    <path d="M 126.90191650390625 105.42684936523438 C 106.40168762207031 108.78117370605469 90.68406677246094 123.54766082763672 92.59539794921875 149.90065002441406" fill="none" stroke="rgb(0, 0, 0)" stroke-linecap="round" stroke-linejoin="round" stroke-opacity="1.0" stroke-width="3.0"/>
    <path d="M 180.67526245117188 118.09634399414062 C 193.8017578125 121.27587127685547 174.8963165283203 131.17236328125 179.27833557128906 114.41404724121094" fill="none" stroke="rgb(0, 0, 0)" stroke-linecap="round" stroke-linejoin="round" stroke-opacity="1.0" stroke-width="3.0"/>
    <path d="M 196.71388244628906 132.261962890625 C 161.34585571289062 56.01976776123047 164.07974243164062 101.8681869506836 191.90284729003906 110.39599609375" fill="none" stroke="rgb(0, 0, 0)" stroke-linecap="round" stroke-linejoin="round" stroke-opacity="1.0" stroke-width="3.0"/>
    <path d="M 135.48703002929688 105.57487487792969 C 108.83658599853516 97.603271484375 87.43275451660156 130.39122009277344 90.71795654296875 130.35865783691406" fill="none" stroke="rgb(0, 0, 0)" stroke-linecap="round" stroke-linejoin="round" stroke-opacity="1.0" stroke-width="3.0"/>
    <path d="M 174.7971649169922 100.38845825195312 C 222.84469604492188 114.67274475097656 169.07106018066406 151.26904296875 193.9549560546875 121.00923919677734" fill="none" stroke="rgb(0, 0, 0)" stroke-linecap="round" stroke-linejoin="round" stroke-opacity="1.0" stroke-width="3.0"/>
    <path d="M 77.63948059082031 88.2485580444336 C 36.60767364501953 180.91067504882812 108.60682678222656 186.32907104492188 107.86065673828125 196.53475952148438" fill="none" stroke="rgb(0, 0, 0)" stroke-linecap="round" stroke-linejoin="round" stroke-opacity="1.0" stroke-width="3.0"/>
    <path d="M 153.9775848388672 154.6697540283203 C 123.61491394042969 225.40789794921875 80.9888687133789 177.1254119873047 175.20144653320312 189.73526000976562" fill="none" stroke="rgb(0, 0, 0)" stroke-linecap="round" stroke-linejoin="round" stroke-opacity="1.0" stroke-width="3.0"/>
    <path d="M 166.84246826171875 95.69193267822266 C 184.58236694335938 108.50575256347656 114.19730377197266 106.148681640625 114.58622741699219 110.59953308105469" fill="none" stroke="rgb(0, 0, 0)" stroke-linecap="round" stroke-linejoin="round" stroke-opacity="1.0" stroke-width="3.0"/>
    <path d="M 92.41194152832031 184.64413452148438 C 89.03842163085938 152.1541290283203 102.34368133544922 131.58746337890625 85.39277648925781 169.62322998046875" fill="none" stroke="rgb(0, 0, 0)" stroke-linecap="round" stroke-linejoin="round" stroke-opacity="1.0" stroke-width="3.0"/>
    <path d="M 166.2960205078125 109.54280853271484 C 163.08096313476562 60.655601501464844 187.39361572265625 109.03207397460938 175.9119415283203 96.974853515625" fill="none" stroke="rgb(0, 0, 0)" stroke-linecap="round" stroke-linejoin="round" stroke-opacity="1.0" stroke-width="3.0"/>
    <path d="M 195.61663818359375 126.43013763427734 C 178.28329467773438 74.18125915527344 220.21917724609375 187.89569091796875 198.41998291015625 149.2308807373047" fill="none" stroke="rgb(0, 0, 0)" stroke-linecap="round" stroke-linejoin="round" stroke-opacity="1.0" stroke-width="3.0"/>
    <path d="M 123.59107971191406 192.6111297607422 C 164.5152130126953 162.33905029296875 119.54225158691406 196.928955078125 169.6163330078125 192.62371826171875" fill="none" stroke="rgb(0, 0, 0)" stroke-linecap="round" stroke-linejoin="round" stroke-opacity="1.0" stroke-width="3.0"/>
    <path d="M 58.618492126464844 82.4764175415039 C 96.21341705322266 22.142112731933594 145.136474609375 85.09283447265625 127.25872039794922 104.4847183227539" fill="none" stroke="rgb(0, 0, 0)" stroke-linecap="round" stroke-linejoin="round" stroke-opacity="1.0" stroke-width="3.0"/>
    <path d="M 61.794288635253906 81.7548828125 C 55.724815368652344 94.40360260009766 51.480812072753906 88.46658325195312 59.31047058105469 118.69052124023438" fill="none" stroke="rgb(0, 0, 0)" stroke-linecap="round" stroke-linejoin="round" stroke-opacity="1.0" stroke-width="3.0"/>
  </g>
</svg>
