<?xml version="1.0" ?>
<svg height="256" version="1.1" width="256" xmlns="http://www.w3.org/2000/svg">
  <defs/>
  <g>
    <path d="M 123.45801544189453 109.63054656982422 C 138.97970581054688 126.18106842041016 133.6337890625 96.89624786376953 153.31776428222656 115.01551818847656" fill="none" stroke="rgb(0, 0, 0)" stroke-linecap="round" stroke-linejoin="round" stroke-opacity="1.0" stroke-width="3.0"/>
    <path d="M 140.10948181152344 104.56261444091797 C 160.57472229003906 117.29888153076172 178.4803466796875 137.7497100830078 170.31317138671875 132.21998596191406" fill="none" stroke="rgb(0, 0, 0)" stroke-linecap="round" stroke-linejoin="round" stroke-opacity="1.0" stroke-width="3.0"/>
    <path d="M 118.89159393310547 138.88462829589844 C 98.74203491210938 93.75608825683594 123.72900390625 144.38621520996094 122.625244140625 112.61449432373047" fill="none" stroke="rgb(0, 0, 0)" stroke-linecap="round" stroke-linejoin="round" stroke-opacity="1.0" stroke-width="3.0"/>
    <path d="M 129.3798370361328 89.99374389648438 C 102.64303588867188 141.3317108154297 137.76089477539062 127.73087310791016 124.8148193359375 104.97067260742188" fill="none" stroke="rgb(0, 0, 0)" stroke-linecap="round" stroke-linejoin="round" stroke-opacity="1.0" stroke-width="3.0"/>
    <path d="M 139.81312561035156 87.65227508544922 C 109.61872100830078 91.17849731445312 155.37290954589844 70.773681640625 137.43154907226562 100.49551391601562" fill="none" stroke="rgb(0, 0, 0)" stroke-linecap="round" stroke-linejoin="round" stroke-opacity="1.0" stroke-width="3.0"/>
    <path d="M 130.92648315429688 107.88330078125 C 99.23523712158203 131.1793212890625 97.16831970214844 135.50669860839844 107.75421142578125 118.72736358642578" fill="none" stroke="rgb(0, 0, 0)" stroke-linecap="round" stroke-linejoin="round" stroke-opacity="1.0" stroke-width="3.0"/>
    <path d="M 120.78654479980469 98.70620727539062 C 147.36679077148438 110.2196044921875 113.43804168701172 149.4405517578125 128.3543701171875 107.40233612060547" fill="none" stroke="rgb(0, 0, 0)" stroke-linecap="round" stroke-linejoin="round" stroke-opacity="1.0" stroke-width="3.0"/>
    <path d="M 123.39805603027344 118.53984832763672 C 77.57412719726562 118.00328826904297 113.32627868652344 168.60971069335938 80.57304382324219 156.62384033203125" fill="none" stroke="rgb(0, 0, 0)" stroke-linecap="round" stroke-linejoin="round" stroke-opacity="1.0" stroke-width="3.0"/>
    <path d="M 89.36526489257812 160.22267150878906 C 127.74797821044922 204.06631469726562 133.6581573486328 237.3572998046875 80.16748809814453 171.44012451171875" fill="none" stroke="rgb(0, 0, 0)" stroke-linecap="round" stroke-linejoin="round" stroke-opacity="1.0" stroke-width="3.0"/>
    <path d="M 99.38371276855469 95.88105010986328 C 88.39653015136719 106.82406616210938 80.9134521484375 105.27448272705078 82.03120422363281 111.36231994628906" fill="none" stroke="rgb(0, 0, 0)" stroke-linecap="round" stroke-linejoin="round" stroke-opacity="1.0" stroke-width="3.0"/>
    <path d="M 104.87973022460938 125.95891571044922 C 134.66690063476562 137.06619262695312 120.0611801147461 114.7362289428711 98.58789825439453 168.05250549316406" fill="none" stroke="rgb(0, 0, 0)" stroke-linecap="round" stroke-linejoin="round" stroke-opacity="1.0" stroke-width="3.0"/>
    <path d="M 124.20512390136719 102.48102569580078 C 131.04287719726562 140.14378356933594 112.05235290527344 75.25701904296875 125.63819885253906 104.0792236328125" fill="none" stroke="rgb(0, 0, 0)" stroke-linecap="round" stroke-linejoin="round" stroke-opacity="1.0" stroke-width="3.0"/>
    <path d="M 135.3537139892578 108.59947204589844 C 114.27710723876953 112.82308197021484 152.87290954589844 95.76004028320312 121.89163970947266 136.88731384277344" fill="none" stroke="rgb(0, 0, 0)" stroke-linecap="round" stroke-linejoin="round" stroke-opacity="1.0" stroke-width="3.0"/>
    <path d="M 72.58177185058594 146.8826141357422 C 85.68982696533203 199.11956787109375 90.47012329101562 161.98501586914062 95.08128356933594 176.80665588378906" fill="none" stroke="rgb(0, 0, 0)" stroke-linecap="round" stroke-linejoin="round" stroke-opacity="1.0" stroke-width="3.0"/>
    <path d="M 102.42378234863281 95.59516906738281 C 170.49383544921875 85.40748596191406 119.5608139038086 102.47833251953125 134.86207580566406 91.66962432861328" fill="none" stroke="rgb(0, 0, 0)" stroke-linecap="round" stroke-linejoin="round" stroke-opacity="1.0" stroke-width="3.0"/>
    <path d="M 142.02406311035156 101.03079223632812 C 176.347412109375 130.0777587890625 152.080078125 114.04249572753906 177.84677124023438 133.98182678222656" fill="none" stroke="rgb(0, 0, 0)" stroke-linecap="round" stroke-linejoin="round" stroke-opacity="1.0" stroke-width="3.0"/>
  </g>
</svg>
