<?xml version="1.0" encoding="UTF-8"?><svg xmlns="http://www.w3.org/2000/svg" width="256" height="256" viewBox="0 0 256 256"><defs><style>.c{fill:#010101;}</style></defs><g id="a"><path class="c" d="M48.17,67.69c-1.21,1.88-1.68,4.99,0,7.51,1.43,2.16,4.05,3.32,6.76,3,1.02-.27,3.16-1.01,4.88-3,1.98-2.3,3.41-6.26,1.88-8.63-2.32-3.59-10.72-3.23-13.51,1.13Z"/><path class="c" d="M56.75,76.33c.64,1.97,1.29,4.49,1.66,7.51,1.12,9.03-.92,16.49-1.9,19.52-2.04,1.09-3.28,.64-4.03,0-4.42-3.74-3.82-23.8,.95-27.03,1.05-.71,2.21-.55,3.32,0Z"/><path class="c" d="M51.38,84.47c-.55,1.12-1.33,2.47-2.45,3.9-3.34,4.29-7.44,6.47-9.17,7.29-1.38-.48-1.75-1.24-1.82-1.85-.4-3.59,8.41-11.71,11.94-10.86,.77,.19,1.23,.79,1.5,1.52Z"/><path class="c" d="M58.33,83.51c1.14,.5,2.53,1.22,4.01,2.27,4.44,3.14,6.81,7.13,7.71,8.82-.42,1.4-1.16,1.81-1.77,1.9-3.57,.57-12.09-7.86-11.41-11.42,.15-.78,.73-1.26,1.45-1.57Z"/><path class="c" d="M56.52,98.08c1.14,.5,2.53,1.22,4.01,2.27,4.44,3.14,6.81,7.13,7.71,8.82-.42,1.4-1.16,1.81-1.77,1.9-3.57,.57-12.09-7.86-11.41-11.42,.15-.78,.73-1.26,1.45-1.57Z"/><path class="c" d="M53.59,100.41c-.28,1.22-.74,2.71-1.5,4.35-2.28,4.94-5.78,7.99-7.28,9.18-1.46-.16-1.98-.81-2.19-1.39-1.21-3.41,5.54-13.31,9.17-13.29,.8,0,1.38,.49,1.8,1.15Z"/><path class="c" d="M38.11,117.84c6.64-3.88,12.38-5.9,16.41-7.03,4.83-1.35,4.33-.62,10.79-2.34,4.31-1.15,8.17-2.45,13.6-2.34,2.83,.06,4.25,.1,4.69,.94,1.35,2.58-7.2,10.62-15.95,15.48,0,0-15.04,8.35-30.01,4.69-4.96-1.21-5.52-2.7-5.63-3.28-.34-1.85,2.11-4.22,6.1-6.1Z"/></g><g id="b"/></svg>