<?xml version="1.0" ?>
<svg height="256" version="1.1" width="256" xmlns="http://www.w3.org/2000/svg">
  <defs/>
  <g>
    <path d="M 105.79719543457031 117.78287506103516 C 169.41310119628906 129.4871826171875 155.0081329345703 134.639404296875 111.16958618164062 111.75526428222656" fill="none" stroke="rgb(0, 0, 0)" stroke-linecap="round" stroke-linejoin="round" stroke-opacity="1.0" stroke-width="3.0"/>
    <path d="M 123.8231201171875 129.9722137451172 C 179.631103515625 106.94200134277344 175.84017944335938 118.48150634765625 155.6749725341797 42.716217041015625" fill="none" stroke="rgb(0, 0, 0)" stroke-linecap="round" stroke-linejoin="round" stroke-opacity="1.0" stroke-width="3.0"/>
    <path d="M 99.26362609863281 218.29421997070312 C 151.53387451171875 226.84039306640625 203.749755859375 211.53570556640625 103.10279846191406 215.49917602539062" fill="none" stroke="rgb(0, 0, 0)" stroke-linecap="round" stroke-linejoin="round" stroke-opacity="1.0" stroke-width="3.0"/>
    <path d="M 104.56450653076172 115.43560791015625 C 164.3822021484375 161.56634521484375 97.96012878417969 123.80513000488281 97.18937683105469 104.25978088378906" fill="none" stroke="rgb(0, 0, 0)" stroke-linecap="round" stroke-linejoin="round" stroke-opacity="1.0" stroke-width="3.0"/>
    <path d="M 164.86097717285156 111.22286987304688 C 135.83184814453125 150.4544677734375 133.39382934570312 103.66007232666016 131.6934814453125 221.62522888183594" fill="none" stroke="rgb(0, 0, 0)" stroke-linecap="round" stroke-linejoin="round" stroke-opacity="1.0" stroke-width="3.0"/>
    <path d="M 165.67160034179688 111.17333984375 C 171.3058624267578 99.55183410644531 178.9239501953125 103.77572631835938 98.73756408691406 104.82830047607422" fill="none" stroke="rgb(0, 0, 0)" stroke-linecap="round" stroke-linejoin="round" stroke-opacity="1.0" stroke-width="3.0"/>
    <path d="M 96.84637451171875 97.01199340820312 C 93.45506286621094 100.83738708496094 95.24686431884766 88.45379638671875 108.06344604492188 39.607093811035156" fill="none" stroke="rgb(0, 0, 0)" stroke-linecap="round" stroke-linejoin="round" stroke-opacity="1.0" stroke-width="3.0"/>
    <path d="M 126.27203369140625 132.7500762939453 C 147.93202209472656 133.31781005859375 137.5264892578125 109.16358947753906 150.49928283691406 121.14196014404297" fill="none" stroke="rgb(0, 0, 0)" stroke-linecap="round" stroke-linejoin="round" stroke-opacity="1.0" stroke-width="3.0"/>
    <path d="M 157.7952117919922 118.69152069091797 C 113.17359924316406 116.91508483886719 90.40098571777344 106.0584945678711 120.22663116455078 122.90897369384766" fill="none" stroke="rgb(0, 0, 0)" stroke-linecap="round" stroke-linejoin="round" stroke-opacity="1.0" stroke-width="3.0"/>
    <path d="M 132.77346801757812 169.1855010986328 C 136.30145263671875 100.19046020507812 77.86993408203125 119.13858032226562 158.90780639648438 115.32167053222656" fill="none" stroke="rgb(0, 0, 0)" stroke-linecap="round" stroke-linejoin="round" stroke-opacity="1.0" stroke-width="3.0"/>
    <path d="M 151.28952026367188 124.39483642578125 C 97.88386535644531 129.79518127441406 120.43536376953125 114.85936737060547 110.04875183105469 115.35261535644531" fill="none" stroke="rgb(0, 0, 0)" stroke-linecap="round" stroke-linejoin="round" stroke-opacity="1.0" stroke-width="3.0"/>
    <path d="M 135.1358184814453 114.00687408447266 C 141.7967529296875 142.83114624023438 96.30511474609375 135.60272216796875 154.046875 121.4199447631836" fill="none" stroke="rgb(0, 0, 0)" stroke-linecap="round" stroke-linejoin="round" stroke-opacity="1.0" stroke-width="3.0"/>
    <path d="M 110.26861572265625 116.9193344116211 C 157.23147583007812 120.6238784790039 195.740966796875 91.62831115722656 112.84516906738281 121.64895629882812" fill="none" stroke="rgb(0, 0, 0)" stroke-linecap="round" stroke-linejoin="round" stroke-opacity="1.0" stroke-width="3.0"/>
    <path d="M 141.6156005859375 107.5749282836914 C 168.48171997070312 123.99527740478516 121.63784790039062 123.05962371826172 130.11480712890625 115.23255920410156" fill="none" stroke="rgb(0, 0, 0)" stroke-linecap="round" stroke-linejoin="round" stroke-opacity="1.0" stroke-width="3.0"/>
    <path d="M 161.76795959472656 112.72686004638672 C 148.24215698242188 107.30167388916016 87.58067321777344 149.23976135253906 144.25218200683594 129.8253936767578" fill="none" stroke="rgb(0, 0, 0)" stroke-linecap="round" stroke-linejoin="round" stroke-opacity="1.0" stroke-width="3.0"/>
    <path d="M 99.438232421875 82.46014404296875 C 98.76034545898438 84.55598449707031 90.25981140136719 111.99925994873047 96.06434631347656 92.69903564453125" fill="none" stroke="rgb(0, 0, 0)" stroke-linecap="round" stroke-linejoin="round" stroke-opacity="1.0" stroke-width="3.0"/>
  </g>
</svg>
